<?xml version="1.0" encoding="UTF-8" standalone="no"?>
<!-- Created with Inkscape (http://www.inkscape.org/) -->

<svg
   xmlns:dc="http://purl.org/dc/elements/1.1/"
   xmlns:cc="http://creativecommons.org/ns#"
   xmlns:rdf="http://www.w3.org/1999/02/22-rdf-syntax-ns#"
   xmlns:svg="http://www.w3.org/2000/svg"
   xmlns="http://www.w3.org/2000/svg"
   xmlns:inkscape="http://www.inkscape.org/namespaces/inkscape"
   version="1.1"
   width="512"
   height="512"
   id="svg2">
  <metadata
     id="metadata16">
    <rdf:RDF>
      <cc:Work
         rdf:about="">
        <dc:format>image/svg+xml</dc:format>
        <dc:type
           rdf:resource="http://purl.org/dc/dcmitype/StillImage" />
      </cc:Work>
    </rdf:RDF>
  </metadata>
  <defs
     id="defs14" />
  <path
     d="M 503.5,256 C 503.5,392.69 392.69,503.5 256,503.5 119.31,503.5 8.5,392.69 8.5,256 8.5,119.31 119.31,8.5 256,8.5 392.69,8.5 503.5,119.31 503.5,256 z"
     inkscape:connector-curvature="0"
     id="path4"
     style="fill:#ffffff" />
  <path
     d="M 8.5,256 C 8.5,392.69 119.31,503.5 256,503.5 392.69,503.5 503.5,392.69 503.5,256 H 8.5 z"
     inkscape:connector-curvature="0"
     id="path6"
     style="fill:#40c040" />
  <path
     d="m 351.285,141.334 c -1.2,-0.17 -2.386,0.046 -3.694,0.643 -2.614,1.194 -5.804,3.845 -11.295,8.03 -12.405,9.462 -26.493,10.682 -43.234,11.058 -34.806,0.784 -50.912,9.3 -58.507,20.183 -7.602,10.883 -6.646,23.992 -7.556,33.72 -0.627,6.64 -1.85,12.32 -6.677,18.562 1.316,-3.22 1.72,-5.583 1.4,-7.342 -0.344,-1.866 -1.423,-3.09 -2.654,-4.1 -1.23,-1 -2.593,-1.82 -3.67,-2.952 -0.827,-0.864 -1.378,-2.042 -1.684,-3.502 1.385,-0.895 3.044,-0.918 4.36,-0.115 1.644,1 2.768,3.234 1.965,6.668 -0.023,0.145 0.1,0.252 0.214,0.337 0.024,0.053 -0.022,0.122 0.024,0.16 0.138,0.115 0.33,0.115 0.474,0 l 0.046,-0.046 c 0,0 -0.007,-0.017 0,-0.024 3.365,-3.57 4.826,-6.485 5.063,-9.01 0.245,-2.53 -0.742,-4.603 -2.08,-6.385 -1.338,-1.78 -3.044,-3.318 -4.26,-4.833 -1.162,-1.438 -1.85,-2.814 -1.59,-4.39 0.542,-0.55 1.055,-0.933 1.514,-1.116 1.002,-0.405 1.806,-0.137 2.54,0.55 0.726,0.682 1.323,1.8 1.682,3 0.352,1.2 0.482,2.485 0.33,3.433 -0.008,0.023 0.022,0.023 0.022,0.046 -0.046,0.175 0.03,0.35 0.19,0.428 0.162,0.084 0.36,0.045 0.475,-0.092 0.016,-0.03 0.022,-0.046 0.045,-0.077 0.007,-0.016 0.007,-0.03 0.023,-0.047 2.234,-3.395 3.15,-6.31 3.197,-8.84 0.038,-2.563 -0.818,-4.712 -2.034,-6.532 -1.223,-1.812 -2.79,-3.325 -4.213,-4.62 -1.377,-1.246 -2.562,-2.292 -3.174,-3.215 -0.007,-0.272 0.007,-0.597 0,-0.858 1.048,-0.75 2.447,-1.18 3.74,-0.906 1.415,0.3 2.684,1.322 3.265,3.6 0.007,0.02 0.04,0.006 0.046,0.023 0.023,0.19 0.16,0.358 0.36,0.358 0.206,0 0.375,-0.172 0.375,-0.38 v -0.024 c 0.15,-4.645 -0.705,-8.372 -2.418,-11.153 -1.583,-2.58 -3.924,-4.296 -6.77,-5.242 0.124,-0.18 0.223,-0.345 0.384,-0.547 0.963,-1.267 2.28,-2.738 3.548,-4.433 2.532,-3.388 4.972,-7.688 4.452,-13.01 0,-0.05 -0.054,-0.076 -0.07,-0.12 -0.022,-0.047 -0.006,-0.108 -0.045,-0.142 -0.076,-0.067 -0.183,-0.103 -0.29,-0.096 -0.06,0.003 -0.06,0.088 -0.115,0.12 -0.06,0.025 -0.13,0.042 -0.168,0.094 -2.37,3.09 -6.66,3.99 -11.15,4.6 0.504,-0.936 1.17,-2.187 1.75,-3.694 0.658,-1.702 1.17,-3.427 0.926,-4.718 v -0.024 c -0.007,-0.035 0.007,-0.085 0,-0.12 -0.023,-0.102 -0.076,-0.183 -0.168,-0.237 -0.092,-0.054 -0.207,-0.076 -0.306,-0.048 -0.04,0.01 -0.04,0.053 -0.07,0.072 -0.06,0.02 -0.122,0.046 -0.168,0.094 -2.746,2.996 -7.916,4.775 -12.46,6.03 -2.263,0.63 -4.374,1.126 -5.964,1.62 -0.796,0.25 -1.46,0.494 -1.966,0.764 -0.32,0.172 -0.574,0.378 -0.757,0.62 -3.15,-0.69 -6.126,-1.154 -8.78,-1.287 -4.81,-0.24 -8.72,0.332 -11.365,1.405 -1.33,0.537 -2.356,1.216 -3.013,2.002 -0.658,0.786 -0.933,1.722 -0.735,2.67 0.192,0.887 0.933,1.75 1.92,2.596 -6.86,-2.836 -12.75,-3.97 -17.567,-3.98 -1.98,-0.003 -3.81,0.168 -5.446,0.454 -3.274,0.57 -5.844,1.612 -7.718,2.668 -1.476,0.83 -2.378,1.612 -2.99,2.264 -0.07,0.064 -0.168,0.072 -0.237,0.143 -0.008,0.013 -0.03,0.01 -0.046,0.023 -0.024,0.03 0.014,0.063 0,0.095 -0.032,0.042 -0.108,0.103 -0.14,0.143 -0.014,0.01 -0.037,0.017 -0.045,0.025 v 0.024 c -0.023,0.027 -0.076,0.07 -0.1,0.095 -0.1,0.146 -0.09,0.345 0.024,0.476 0.12,0.132 0.32,0.16 0.473,0.073 0.872,-0.517 1.85,-0.962 2.89,-1.358 0.047,0.013 0.1,0.024 0.14,0.024 0.855,0.013 1.75,0.2 2.584,0.522 0.902,0.35 1.76,0.794 2.394,1.192 0.635,0.398 1.08,0.763 1.155,0.834 0.016,0.017 0.03,0.033 0.046,0.048 0.453,0.294 1.087,0.583 1.707,0.858 -1.33,2.755 -1.797,6.258 -1.774,11.39 -0.238,0.046 -0.413,0.1 -0.69,0.143 -1.398,0.214 -3.234,0.337 -5.253,0.214 -2.853,-0.17 -6.05,-0.882 -8.948,-2.405 0.474,0.082 0.956,0.24 1.422,0.262 2.142,0.108 4.023,-0.324 5.423,-1.096 0.206,-0.044 0.466,-0.055 0.635,-0.118 0.153,-0.055 0.237,-0.2 0.237,-0.358 0,-0.107 -0.093,-0.167 -0.17,-0.238 -0.03,-0.034 -0.023,-0.1 -0.068,-0.12 -2.088,-0.82 -13.147,-5.893 -22.493,-17.705 -0.01,-0.008 -0.017,-0.013 -0.024,-0.023 -0.008,-0.01 -0.015,-0.014 -0.023,-0.023 -0.084,-0.11 -0.222,-0.164 -0.36,-0.143 -0.19,0.037 -0.32,0.21 -0.306,0.406 0,0.048 0.008,0.097 0.023,0.143 0.43,5.627 2.18,19.375 13.614,30.43 0.122,0.116 0.306,0.147 0.45,0.07 0.146,-0.076 0.215,-0.242 0.192,-0.404 -0.275,-1.46 -0.413,-2.457 -0.688,-3.932 0,-0.023 -0.038,-0.026 -0.046,-0.048 0.023,-1.904 -0.13,-3.22 -0.352,-4.313 3.41,3.124 7.006,4.54 10.37,4.98 4.292,0.564 8.184,-0.33 10.747,-0.74 0.13,-0.02 0.275,-0.05 0.405,-0.07 0.038,2.432 -0.887,5.537 -2.417,8.1 -0.864,1.452 -1.88,2.706 -2.96,3.578 -1.07,0.865 -2.195,1.34 -3.242,1.263 h -0.023 c -0.176,0.03 -0.3,0.183 -0.306,0.36 -0.07,0.068 -0.176,0.084 -0.17,0.19 0.01,0.207 0.17,0.383 0.376,0.375 4.658,0 8.543,0.13 12.765,-0.137 h 0.023 c 0.535,-0.076 0.772,0 0.78,0 -0.008,0.04 -0.023,0.085 -0.07,0.17 -0.274,0.473 -1.17,1.36 -2.202,2.355 -0.122,0.107 -0.16,0.275 -0.09,0.428 0.06,0.153 0.213,0.252 0.373,0.237 0.022,0 0.053,-0.023 0.076,-0.023 0.092,0.076 0.214,0.1 0.33,0.076 0.045,-0.015 0.075,-0.038 0.113,-0.053 0.16,-0.038 0.275,-0.092 0.428,-0.138 2.738,-0.29 6.15,-0.856 8.718,-2.7 -0.053,0.276 -0.153,0.666 -0.237,0.888 -0.1,0.23 -0.276,0.48 -0.597,0.81 -0.04,0.04 -0.146,0.123 -0.19,0.17 -0.445,0.335 -0.76,0.633 -1.325,1.023 -0.03,0.016 -0.038,0.023 -0.068,0.046 -0.13,0.083 -0.184,0.252 -0.146,0.405 0.04,0.153 0.153,0.26 0.306,0.283 0.03,0.008 0.07,0.008 0.1,0 h 0.046 c 0.022,0 0.053,-0.023 0.068,-0.023 2.876,-0.3 7.908,-2.51 11.534,-6.34 1.88,0.252 3.082,1.177 3.908,2.095 0.443,0.497 0.772,0.964 1.132,1.293 0.145,0.122 0.32,0.198 0.497,0.26 -0.008,0.168 -0.153,0.344 -0.115,0.497 0.092,0.344 0.32,0.612 0.612,0.787 -1.354,2.478 -1.767,4.237 -1.56,5.34 0.122,0.65 0.405,1.085 0.71,1.383 -1.804,1.323 -3.318,2.738 -4.045,4.023 -0.398,0.704 -0.59,1.392 -0.428,2.004 0.045,0.176 0.182,0.306 0.282,0.45 -0.138,0.017 -0.26,-0.03 -0.428,0.024 h -0.023 c -1.79,0.865 -3.533,2.6 -4.473,4.292 -0.467,0.848 -0.727,1.682 -0.666,2.432 0.032,0.328 0.177,0.62 0.36,0.88 -2.256,1.154 -4.382,3.747 -5.544,6.056 -0.59,1.186 -0.94,2.287 -0.85,3.167 0.047,0.443 0.23,0.85 0.59,1.093 -0.077,0.084 -0.13,0.138 -0.214,0.222 -0.04,0.038 -0.077,0.046 -0.115,0.092 -2.28,1.17 -3.8,3.916 -4.45,6.34 -0.33,1.232 -0.452,2.38 -0.26,3.243 0.068,0.314 0.266,0.55 0.45,0.78 -0.122,0.092 -0.268,0.145 -0.382,0.245 -0.69,0.596 -1.178,1.292 -1.347,1.545 l -0.023,0.023 c -1.338,1.698 -1.912,4.474 -1.827,6.79 0.046,1.164 0.252,2.22 0.688,2.984 0.153,0.268 0.39,0.436 0.612,0.62 -0.023,0.03 -0.115,0.083 -0.138,0.114 l -0.023,0.023 c -1.338,1.7 -1.912,4.475 -1.828,6.792 0.045,1.17 0.26,2.218 0.688,2.983 0.214,0.383 0.497,0.696 0.856,0.88 0.176,0.092 0.406,0.038 0.612,0.046 -0.046,0.077 -0.206,0.245 -0.237,0.29 0,0.008 -0.01,0.032 -0.024,0.047 -0.214,0.214 -0.352,0.474 -0.474,0.834 -0.06,0.177 -0.092,0.414 -0.138,0.62 -0.818,1.66 -1.49,0.757 -1.942,0.123 -3.534,-7.35 -6.983,-11.67 -10.37,-28.436 -0.598,-2.92 -7.137,-7.495 -8.934,-19.35 -0.36,-2.684 3.68,-8.443 -1.89,-10.194 -0.014,-0.007 -0.03,0 -0.045,0 -3.8,-7.205 -11.594,-4.46 -12.833,-2.096 -0.115,0.123 -0.115,0.314 -0.03,0.452 0.09,0.136 0.244,0.182 0.404,0.144 1.01,-0.283 4.008,0.75 4.023,2.615 -1.667,3.93 0.406,7.22 -0.703,6.867 -0.176,-6.14 -6.89,-6.064 -7.105,-6.01 -0.01,0.006 0,0.022 0,0.03 l -3.007,-0.36 c -10.02,0.077 -7.197,7.388 -6.585,8.818 0.1,0.13 0.32,0.184 0.543,0.17 0.223,-0.024 0.383,-0.124 0.43,-0.27 -0.444,-2.745 1.75,-2.882 4.045,-1.812 1.46,5.56 4.528,5.76 4.948,5.767 v 0.03 h 0.046 c 4.152,0.842 5.468,3.61 5.498,5.286 -1.323,-0.513 -2.937,-0.78 -5.185,-0.352 -1.507,-1.537 -4.413,-2.096 -5.377,-2.295 -0.474,-0.092 -3.587,0.305 -4.856,2.103 l -0.474,-0.077 c -6.218,1.996 -3.656,9.002 -1.538,9.843 0.084,0.114 0.222,0.16 0.36,0.122 0.13,-0.046 0.183,-0.17 0.183,-0.314 -0.932,-2.15 0.384,-3.342 1.99,-2.623 2.386,2.615 5.323,3.678 11.273,0.313 0.092,0.046 2.103,0.95 4.237,1.736 -0.084,2.51 2.57,6.89 4.497,10.157 -0.604,2.555 -1.614,5.087 -2.195,6.028 -0.015,0.007 -0.038,0.038 -0.053,0.046 -2.41,1.858 -4.49,6.286 -3.504,10.248 -0.757,1.95 -3.488,2.998 -3.503,-0.765 -0.13,-0.107 -0.29,-0.13 -0.428,-0.046 -0.138,0.085 -0.2,0.246 -0.16,0.407 -0.88,2.5 3.25,10.05 9.704,6.103 l 1.3,-1.476 c 2.126,0.03 4.367,-2.77 5.162,-5.178 3.197,19.587 10.746,39.34 13.897,45.758 -2.334,7.205 -9.14,6.93 -11.366,4.574 -0.023,-0.016 -0.04,-0.03 -0.07,-0.046 -0.16,-0.138 -0.39,-0.092 -0.52,0.07 -0.13,0.167 -0.114,0.39 0.047,0.526 4.153,4.176 6.433,5.515 10.517,5.5 8.986,-0.03 12.13,-5.614 12.833,-7.978 7.564,-1.62 13.376,-6.562 15.556,-6.96 0.337,0.29 0.796,0.842 1.11,1.094 1.796,1.43 3.295,2.234 4.62,2.386 0.633,0.07 1.222,-0.03 1.75,-0.29 0.512,1.055 1.277,1.92 2.248,2.6 -0.39,2.662 -0.695,8.1 -2.623,15.036 -1.987,7.136 -5.697,15.67 -12.91,23.732 -2.836,1.24 -5.13,-0.673 -6.6,-1.858 -1.238,-0.995 -4.458,-4.452 -5.024,-6.24 -0.665,-2.112 -1.445,-3.58 -2.554,-4.674 -1.11,-1.094 -2.968,-1.46 -4.405,-1.6 -0.016,0 0.543,0.108 -0.046,0 -0.52,0.047 -0.87,0.008 -1.208,0.055 -4.382,-3.47 -8.71,2.357 -8.19,6.005 0.007,0.153 0.114,0.29 0.282,0.33 0.168,0.045 0.344,-0.017 0.45,-0.14 0.59,-1.383 2.334,-1 3.22,0.215 -0.136,1.293 -0.052,2.77 1.37,4.482 -1.384,0.1 -3.15,0.512 -4.994,2.638 -7.503,0.903 -6.134,9.423 -3.908,10.845 0.07,0.153 0.222,0.237 0.382,0.215 0.153,-0.023 0.276,-0.146 0.306,-0.306 -2.455,-3.182 1.017,-4.56 2.746,-3.098 0.436,1.392 2.424,2.692 4.1,3.503 -0.085,0.412 -0.636,2.087 -0.452,2.546 -8.07,4.428 -0.59,12.145 1.277,11.632 0.154,-0.045 0.292,-0.053 0.43,-0.145 0.13,-0.092 0.183,-0.275 0.137,-0.428 -1.147,-1.828 -1.193,-4.038 0.81,-3.41 1.05,0.672 3.014,0.94 4.07,0.955 2.554,0.038 3.977,-1.614 7.174,-4.742 1.905,-1.866 3.366,-0.964 4.55,-0.337 0.123,0.537 0.33,1.172 0.972,1.432 0.94,0.39 2.975,0.59 4.17,0.55 6.59,-0.206 10.247,-1.652 13.253,-2.692 3.005,-1.048 5.743,-1.606 8.267,-1.644 2.356,-0.046 3.9,0.428 6.463,1.285 1.285,0.43 3.342,1.47 4.36,1.454 1.66,-0.06 2.4,-0.857 2.814,-1.5 2.46,-0.443 3.088,0.643 1.658,3.427 -0.046,0.162 0.03,0.345 0.16,0.43 0.14,0.09 0.3,0.076 0.43,-0.023 2.554,-1.08 10.186,-8.39 -0.116,-12.56 -1.567,-1.39 -3.61,-2.568 -5.185,-2.568 -1.59,0 -3.166,0.64 -4.81,1 -1.645,0.352 -3.243,0.68 -3.786,0.69 -2.11,0.037 -2.21,-1.27 -2.416,-3.596 -0.207,-2.332 4.71,-10.508 6.89,-13.4 4.322,-5.712 10.08,-12.22 14.234,-16.488 12.36,-0.528 7.373,6.784 5.277,8.198 -0.16,0.1 -0.222,0.3 -0.138,0.482 0.077,0.176 0.26,0.268 0.444,0.214 0.047,-0.016 0.077,-0.038 0.123,-0.053 4.474,-1.178 8.71,-4.252 10.134,-7.12 0.007,-0.017 3.227,-5.607 0.474,-10.37 -0.13,-0.277 -0.267,-0.65 -0.404,-0.95 1.545,-0.72 3.426,-3.334 3.503,-3.694 2.056,0.59 9.987,0.16 10.706,-4.313 3.663,0.36 10.218,-2.073 10.462,-6.057 0.43,0.413 1.362,0.428 2.394,0.244 0.413,3.35 5.484,6.524 6.654,5.813 0.512,5.56 7.51,8.19 9.545,7.22 -0.343,1.346 4.82,3.877 6.892,3.762 -3.977,10.76 -11.03,22.9 -20.795,27.74 -2.616,-0.268 -6.356,-2.012 -8,-3.12 -1.316,-0.888 -2.99,-2.004 -4.03,-3.672 -1.04,-1.667 -0.972,-1.63 -2.08,-2.715 -1.11,-1.093 -3.305,-1.935 -4.024,-1.858 -0.512,0.046 -1.37,0.428 -2.134,0.948 -9.622,-1.72 -8.704,5.155 -7.863,7.656 0.007,0.146 0.115,0.284 0.283,0.33 0.168,0.046 0.352,-0.023 0.45,-0.146 0.032,-3.594 2.074,-3.586 3.152,-1.927 -0.016,0.06 -0.038,0.107 -0.023,0.168 0.58,1.247 0.328,1.928 0.114,2.41 -1.055,0.107 -2.15,0.374 -3.403,1.307 -8.466,-0.933 -7.693,8.413 -5,9.507 0.068,0.152 0.22,0.236 0.38,0.213 0.154,-0.023 0.277,-0.145 0.307,-0.306 -1.514,-2.233 2.302,-5.62 3.197,-1.575 v 0.023 c -0.1,0.122 -0.122,0.29 -0.046,0.428 0.2,1.315 1.736,2.593 3.098,3.243 -0.245,0.405 -0.757,0.757 -0.872,1.453 -8.918,3.142 -3.94,10.775 -1.3,11.89 0.122,0.093 0.313,0.093 0.443,0 0.138,-0.09 0.184,-0.25 0.146,-0.404 -0.81,-1.155 -0.513,-3.77 3.197,-3.29 0.313,1.072 1.934,1.554 3.196,1.577 2.555,0.03 7.205,-3.434 9.66,-4.772 2.317,-1.26 6.08,-0.787 7.06,-0.734 0.49,0.413 1.246,0.826 2.96,0.81 8.947,-0.106 10.5,-4.955 19.532,-4.817 4.053,0.06 13.66,4.855 16.72,0.427 1.383,-0.512 2.148,0.72 0.473,2.386 -0.114,0.115 0.03,0.337 0.16,0.43 0.14,0.09 0.27,-0.047 0.43,-0.024 2.67,0.327 10.653,-8.39 0.09,-11.23 -0.044,-0.083 -0.037,-0.16 -0.16,-0.26 -0.252,-0.182 -1.59,-1.613 -4.74,-1.62 -3.267,0 -5.53,1.5 -6.655,1.812 -2.386,0.673 -1.53,-1.254 -1.277,-1.88 2.646,-6.464 15.41,-18.51 21.193,-23.38 0.582,-0.23 1.278,-0.59 2.112,-1.118 5.812,-2.103 7.372,3.572 1.652,5.645 -0.23,0.25 -0.26,0.618 -0.092,0.91 0.168,0.29 0.505,0.435 0.826,0.35 13.46,-3.57 11.434,-10.936 11.44,-11.028 0.506,-7.633 -8.572,-10.814 -10.04,-11.533 -2.47,-2.747 -3.045,-4.368 -2.86,-6.34 0.083,-0.95 0.84,-2.58 2.125,-1.883 2.172,1.72 4.78,2.73 5.522,1.33 -1.545,1.768 9.162,8.184 10.225,5.53 1.033,4.574 8.742,4.3 10.226,3.052 2.24,4.328 10.11,3.18 10.088,2.43 -0.322,1.592 6.837,3.963 10.133,1.5 l 0.146,0.36 c 2.615,3.173 4.183,7.426 5.965,14.867 1.79,7.442 1.46,13.34 -0.925,19.327 -0.115,0.214 -0.757,0.237 -1.492,0.214 -1.91,-0.757 -3.035,-1.338 -4.327,-2.386 -1.24,-0.994 -2.715,-2.394 -3.794,-3.93 -1.003,-1.79 -1.706,-3.22 -2.815,-4.315 -1.11,-1.086 -3.014,-1.575 -4.45,-1.713 h -0.047 c -0.635,0.054 -1.178,0.26 -1.66,0.597 -7.19,-2.233 -10.654,5.385 -9.805,7.886 0.007,0.153 0.146,0.29 0.314,0.336 0.168,0.046 0.344,-0.023 0.443,-0.145 0.727,-1.866 4.054,-2.792 5.24,-1.048 0.175,0.75 0.114,1.307 -0.054,1.666 -1.492,0.16 -3.28,0.612 -4.972,2.746 -8.42,0.543 -5.537,8.788 -3.83,10.937 0.068,0.152 0.22,0.236 0.374,0.213 0.16,-0.023 0.298,-0.145 0.336,-0.314 -0.214,-2.394 2.218,-5.247 3.93,-3.075 0.766,1.2 2.456,2.073 3.642,2.34 -9.637,4.436 -2.73,10.807 -0.115,11.916 0.13,0.093 0.292,0.085 0.43,0 0.13,-0.09 0.206,-0.252 0.16,-0.405 -1.178,-1.88 -0.52,-4.71 1.728,-3.96 -0.053,1.56 3.15,2.6 4.62,2.622 2.554,0.038 5.262,-2.073 7.717,-3.403 2.34,-1.278 7.83,-1.323 8.925,-1.34 3.686,3.512 10.745,2.617 14.684,1.386 4.214,-1.33 7.396,-3.664 10.7,-3.74 4.49,0.03 7.946,5.437 11.862,0.833 2.57,-1.24 3.334,1.905 2.088,3.886 -0.046,0.15 0.007,0.312 0.145,0.396 0.13,0.092 0.313,0.1 0.443,0 2.592,-1.093 9.338,-7.31 0.122,-11.747 0.46,-1.194 -3.572,-4.682 -6.96,-4.69 -4.145,-0.016 -10.393,6.295 -12.833,-6.248 -0.597,-3.028 -2.294,-24.887 -2.417,-26.997 0.81,-0.52 1.89,-1.148 2.677,-1.117 0.925,-0.046 1.858,-0.122 2.77,1.33 0.91,1.454 1.612,3.626 -0.69,6.624 -0.03,0.046 0.038,0.092 0.023,0.145 -0.023,0.07 -0.084,0.123 -0.07,0.19 0.008,0.047 0.07,0.055 0.093,0.093 0.023,0.038 -0.007,0.092 0.023,0.123 0.032,0.023 0.062,-0.016 0.1,0 0.03,0.016 0.03,0.06 0.07,0.07 0.137,0.037 0.282,-0.008 0.382,-0.116 5.713,-5.683 7.097,-11.74 5.583,-15.893 -1.514,-4.16 -5.713,-7.243 -9.094,-7.32 -4.075,-0.1 -8.595,-2.485 -12.45,-6.08 -3.854,-3.594 -6.256,-7.678 -7.793,-11.48 -0.275,-0.695 -0.658,-1.368 -0.97,-2.05 24.93,-8.61 32.098,-28.48 32.082,-40.68 0,-8.45 -3.473,-15.64 -8.43,-20.9 -0.083,-2.027 0.445,-4.62 1.255,-6.884 0.46,-1.285 0.972,-2.447 1.4,-3.266 0.184,-0.35 0.337,-0.596 0.474,-0.81 0.122,0.49 0.22,0.956 0.52,1.69 0.42,1.048 0.978,2.28 1.613,3.533 1.262,2.5 2.776,5.033 4.07,6.12 0.106,0.09 0.25,0.106 0.38,0.052 0.124,-0.062 0.223,-0.177 0.238,-0.314 1.01,-12.283 5.233,-30.298 18.915,-46.873 0.007,-0.008 0.016,-0.014 0.023,-0.024 0.007,-0.007 0,-0.018 0,-0.024 0.053,-0.025 0.092,-0.047 0.145,-0.072 0.168,-0.086 0.245,-0.274 0.19,-0.453 -0.06,-0.177 -0.243,-0.292 -0.427,-0.26 -0.023,0.004 -0.046,0.012 -0.07,0.023 -0.006,0.003 -0.022,-0.003 -0.022,0 -3.12,1.472 -5.935,2.923 -8.48,4.337 -22.265,11.86 -26.25,19.88 -38.57,29.403 -0.146,0.1 -0.207,0.29 -0.146,0.46 0.06,0.16 0.23,0.252 0.406,0.236 6.08,-0.3 11.334,-1.637 16.1,-4.077 -1.225,1.973 -2.617,4.382 -3.978,6.53 -0.796,1.256 -1.568,2.364 -2.203,3.1 -0.313,0.358 -0.59,0.64 -0.803,0.78 -0.107,0.068 -0.115,0.037 -0.168,0.052 -3.29,-1.552 -6.723,-2.424 -10.012,-2.432 -12.29,-0.03 -20.772,8.153 -20.84,18.01 -0.07,10.57 8.137,18.426 16.29,18.02 2.822,-0.137 6.592,-0.864 9.92,-3.074 2.43,-1.615 4.565,-4.078 5.827,-7.535 0.023,0.283 0.092,0.55 0.092,0.842 0.006,5.667 -2.165,9.537 -5.706,12.175 -3.534,2.63 -8.55,3.985 -14.157,4.1 -5.484,0.114 -11.113,-2.876 -19.06,-6.08 -7.953,-3.205 -18.2,-6.54 -32.87,-6.792 -4.39,-0.076 -8.558,0.352 -12.054,2.172 -0.22,0.115 -0.413,0.298 -0.634,0.428 1.865,-2.248 4.12,-4.252 6.813,-5.72 6.386,-3.488 14.493,-4.413 21.743,-1.453 0.78,0.367 1.69,0.84 2.364,1.116 0.558,0.23 0.872,0.23 1.353,0.383 0.123,0.88 0.13,1.575 -0.023,1.904 -0.084,0.176 -0.19,0.245 -0.313,0.314 -0.07,0.03 -0.16,0.045 -0.26,0.068 -0.153,0.03 -0.32,0.077 -0.566,0.023 -0.13,-0.023 -0.267,0.016 -0.35,0.123 -0.093,0.1 -0.123,0.252 -0.077,0.382 -0.023,0.168 0.06,0.33 0.214,0.405 0.1,0.046 0.19,0.03 0.283,0.07 0.58,0.558 1.216,0.856 1.828,0.718 0.757,-0.176 1.392,-0.772 1.89,-1.484 0.503,-0.704 0.87,-1.538 1.07,-2.31 0.015,-0.084 0.006,-0.153 0.022,-0.237 0.604,-0.68 1.056,-1.683 0.85,-2.838 -0.215,-1.208 -1.21,-2.47 -3.098,-3.503 -0.038,-0.03 -0.03,-0.09 -0.077,-0.114 -0.06,-0.046 -0.46,-0.45 -0.78,-1.125 -0.32,-0.665 -0.642,-1.598 -0.872,-2.67 -0.474,-2.132 -0.612,-4.878 0,-7.6 1.21,-5.44 5.224,-10.876 16.214,-11.962 0.054,0 0.077,-0.06 0.123,-0.068 2.118,0.42 4.015,0.71 5.468,0.688 0.23,0 0.405,-0.053 0.62,-0.07 0.1,0.116 0.198,0.208 0.282,0.36 0.16,0.284 0.26,0.605 0.215,0.995 -0.046,0.314 -0.314,0.71 -0.62,1.124 -0.023,0.007 -0.023,0.015 -0.046,0.022 -0.123,0.03 -0.223,0.123 -0.26,0.237 -0.047,0.122 -0.03,0.252 0.045,0.36 v 0.045 h 0.023 v 0.023 c 0.038,0.137 0.153,0.237 0.283,0.26 0.154,0.03 0.3,-0.04 0.452,-0.046 0.658,0.2 1.323,0.183 1.897,-0.214 0.764,-0.528 1.398,-1.423 1.773,-2.402 0.375,-0.987 0.52,-2.073 0.19,-3.006 -0.22,-0.62 -0.78,-1.055 -1.467,-1.36 -8.68,-9.056 -8.32,-20.03 -4.902,-29.31 1.713,-4.645 4.214,-8.824 6.7,-11.96 2.485,-3.138 5.23,-5.39 6.584,-5.864 0.07,-0.026 -0.046,0.064 0.023,0.024 0.544,0.03 1.102,0.075 1.607,-0.07 0.765,-0.222 1.453,-0.602 2.065,-1.073 0.03,0.03 0,0.102 0.046,0.12 0.19,0.07 0.39,-0.03 0.474,-0.216 l 0.023,-0.023 c 0.07,-0.043 0.19,-0.094 0.33,-0.143 0.282,-0.095 0.64,-0.15 0.88,-0.12 0.12,0.016 0.213,0.062 0.26,0.097 0.044,0.035 0.075,0.05 0.09,0.144 0.03,0.182 -0.053,0.673 -0.497,1.43 -0.007,0.014 -0.016,0.007 -0.023,0.023 v 0.049 c -0.053,0.095 -0.06,0.208 -0.023,0.31 l 0.023,0.024 v 0.022 h 0.023 c 0.007,0.017 0.016,0.033 0.023,0.048 l 0.024,0.024 c 0.007,0.008 0.016,0.016 0.03,0.024 0.024,0.02 0.062,0.036 0.093,0.048 0.016,0.01 0.03,0.016 0.045,0.023 h 0.144 c 0.038,-0.003 0.076,-0.01 0.115,-0.024 0.03,-0.013 0.045,-0.036 0.068,-0.048 0.017,-0.01 0.017,-0.015 0.032,-0.024 0.688,-0.13 1.37,-0.54 1.966,-1.168 0.665,-0.705 1.208,-1.605 1.46,-2.526 0.26,-0.92 0.222,-1.932 -0.443,-2.62 -0.566,-0.577 -1.576,-0.823 -2.914,-0.81 -0.236,-0.534 -0.664,-1 -1.253,-1.264 -0.55,-0.246 -1.278,-0.284 -2.065,-0.262 l -0.52,-0.143 c -1.392,-0.893 -2.585,-1.426 -3.786,-1.596 z m -190.467,39.223 c 2.578,0.018 5.14,0.446 7.503,1.525 -0.504,0.42 -1.138,0.73 -1.92,0.906 -1.475,0.334 -3.34,0.245 -5.107,-0.096 -1.775,-0.34 -3.45,-0.942 -4.574,-1.525 -0.345,-0.178 -0.506,-0.336 -0.735,-0.5 1.583,-0.195 3.204,-0.32 4.833,-0.31 z m 199.56,38.243 c 0.934,0.023 1.96,0.222 3.007,0.597 0.78,0.282 1.544,0.757 2.294,1.216 -0.108,0.13 -0.192,0.29 -0.238,0.45 -1.37,4.873 -3.885,6.28 -5.943,6.25 -2.05,-0.04 -3.78,-1.576 -3.786,-3.626 -0.017,-2.562 0.887,-3.763 2.225,-4.405 0.664,-0.32 1.506,-0.497 2.44,-0.482 z m -143.14,12.917 c 0.55,-0.09 1.002,0.007 1.377,0.314 0.374,0.3 0.688,0.835 0.803,1.737 0.007,0.054 0.076,0.054 0.1,0.1 0.006,0.13 0.03,0.275 0.16,0.33 0.046,0.02 0.076,-0.024 0.122,-0.024 -0.673,0.826 -1.315,1.652 -2.134,2.5 -1.246,-0.48 -2.37,-1.292 -3.265,-2.715 0.773,-1.177 1.874,-2.072 2.838,-2.24 z"
     inkscape:connector-curvature="0"
     id="path8"
     style="fill:#800000" />
  <path
     d="m 351.454,142.645 c -4.658,4.64 -9.262,7.918 -15.794,11.914 -11.464,7.008 -24.863,8.8 -41.582,9.674 -33.858,1.78 -48.856,8.387 -55.808,17.896 -6.952,9.512 -5.774,21.733 -7.556,34.506 -0.558,4 -1.76,8.787 -3.93,12.84 -1.83,3.427 -4.376,6.257 -7.764,7.794 9.407,-8.512 9.453,-16.833 10.248,-21.705 1.43,-8.757 -0.16,-21.193 6.63,-31.79 6.8,-10.602 22.005,-19.5 57.33,-20.852 14.563,-0.557 23.45,-1.96 29.622,-3.79 6.164,-1.828 9.606,-4.087 13.162,-6.266 3.67,-2.25 6.692,-5.644 9.637,-7.91 1.467,-1.135 2.913,-1.982 4.38,-2.29 0.46,-0.096 0.95,-0.04 1.424,-0.023 z m 4.114,1.93 c 0.65,-0.026 1.186,0.015 1.47,0.142 0.327,0.148 0.465,0.32 0.542,0.55 0.16,0.457 -0.06,1.396 -0.704,2.286 -0.65,0.89 -1.652,1.673 -2.7,1.978 -1.055,0.302 -2.92,-0.516 -3.197,-0.762 -0.13,-0.135 -0.322,-0.106 -0.498,-0.12 -0.183,-0.203 -0.36,-0.412 -0.55,-0.618 -0.077,-0.1 -0.2,-0.155 -0.33,-0.143 -0.076,0.008 -0.152,0.042 -0.213,0.095 -16.705,15.274 -30.945,18.175 -54.433,19.802 -8,0.552 -20.527,2.08 -31.357,4.79 -5.407,1.356 -10.41,2.993 -14.202,4.98 -3.793,1.988 -6.44,4.333 -7.013,7.15 -0.023,0.12 0.016,0.243 0.1,0.333 0.083,0.09 0.206,0.138 0.328,0.12 l 0.145,-0.025 c 0.16,0.22 0.398,0.374 0.69,0.334 1.987,-0.178 7.73,-0.2 15.478,0.095 7.748,0.3 17.568,0.896 27.916,1.883 19.915,1.904 41.75,5.346 54.7,10.89 0.26,0.307 0.48,0.628 0.756,0.934 -0.007,0 0.007,0.015 0,0.023 -0.33,0.19 -1.155,0.29 -2.318,0.19 -2.332,-0.206 -6.026,-1.07 -10.493,-2.217 -8.933,-2.294 -21.016,-5.675 -32.106,-6.837 -18.882,-1.99 -30.2,-4.566 -56.044,-4.627 -0.03,-0.005 -0.06,-0.005 -0.092,0 -0.03,0.005 -0.053,0.013 -0.076,0.024 -0.115,0.06 -0.146,0.112 -0.237,0.19 -0.09,0.075 -0.206,0.182 -0.328,0.312 -0.245,0.253 -0.536,0.597 -0.803,1.048 -0.544,0.903 -0.988,2.195 -0.78,3.74 0.006,0.13 0.09,0.252 0.205,0.306 0.054,0.03 0.138,0.03 0.19,0.053 0.093,0.077 0.093,0.237 0.215,0.26 2.218,0.383 7.28,1.966 13.782,4.29 6.5,2.326 14.478,5.408 22.776,8.842 16.168,6.684 33.4,14.692 43.12,20.97 0.673,0.536 1.66,1.278 2.134,1.928 0.122,0.176 0.22,0.33 0.26,0.452 0.03,0.122 0.022,0.206 0,0.267 -0.046,0.092 -0.436,0.253 -0.903,0.375 -3.848,-0.834 -9.897,-4.115 -16.903,-8.168 -7.663,-4.437 -16.39,-9.63 -24.58,-13.018 -14.402,-5.943 -31.817,-13.667 -40.038,-15.464 l -0.1,-0.023 c -0.123,0.008 -0.146,0.145 -0.215,0.237 -0.054,-0.008 -0.107,-0.008 -0.16,0 -0.047,0.015 -0.085,0.046 -0.123,0.076 -0.58,0.39 -0.994,0.82 -1.186,1.33 -0.183,0.513 -0.122,1.064 0.123,1.622 0.488,1.125 1.666,2.38 3.433,4.17 3.526,3.586 9.468,9.23 17.024,18.996 13.086,16.918 19.197,25.1 21.828,29.162 1.323,2.035 1.728,3.06 1.75,3.457 0.017,0.2 -0.006,0.23 -0.09,0.314 -0.062,0.052 -0.215,0.144 -0.352,0.236 -1.048,-0.038 -1.668,-0.237 -2.28,-0.81 -0.634,-0.605 -1.3,-1.66 -2.294,-3.39 -1.997,-3.448 -5.362,-9.498 -13.186,-19.754 -4.757,-6.225 -10.516,-12.917 -15.396,-18.485 -4.81,-5.507 -8.71,-9.858 -9.896,-11.487 -0.03,-0.092 -0.06,-0.176 -0.092,-0.268 -0.038,-0.092 -0.1,-0.168 -0.19,-0.214 -0.223,-0.092 -0.506,-0.054 -0.69,0.076 -0.175,0.122 -0.305,0.29 -0.428,0.497 -0.23,0.414 -0.405,0.973 -0.59,1.668 -0.366,1.408 -0.702,3.343 -0.97,5.362 -0.26,2.02 -0.46,4.13 -0.59,5.866 -0.12,1.667 -0.182,2.868 -0.144,3.503 v 0.145 c 0.007,0.06 0.038,0.106 0.07,0.16 0.327,2.93 1.612,5.4 3.272,8.84 1.713,3.565 3.8,8.192 5.682,15.496 1.59,6.18 3.19,12.574 3.955,17.46 0.382,2.45 0.543,4.52 0.42,5.96 -0.053,0.726 -0.183,1.284 -0.375,1.643 -0.19,0.36 -0.39,0.513 -0.688,0.55 h -0.023 c -0.45,0.108 -0.61,0.062 -0.78,-0.12 -0.167,-0.177 -0.328,-0.606 -0.45,-1.31 -0.237,-1.406 -0.32,-3.84 -0.71,-7.41 -0.774,-7.113 -2.762,-18.8 -9.592,-36.527 -0.016,-0.054 -0.023,-0.092 -0.046,-0.146 -0.016,-0.038 -0.07,-0.016 -0.092,-0.046 -0.046,-0.06 -0.046,-0.145 -0.122,-0.168 -0.054,-0.023 -0.07,0.023 -0.115,0.023 -0.03,0 -0.038,-0.055 -0.076,-0.047 -0.03,0 -0.03,0.054 -0.07,0.07 -0.053,0.022 -0.13,0 -0.16,0.022 -0.092,0.07 -0.16,0.138 -0.214,0.214 -0.122,0.16 -0.252,0.35 -0.382,0.62 -0.26,0.534 -0.565,1.306 -0.925,2.285 -0.703,1.966 -1.568,4.765 -2.386,8.03 -1.087,4.345 -2.05,9.53 -2.586,14.754 -0.046,-0.78 -0.06,-1.294 -0.092,-2.074 -0.076,-1.88 -0.076,-3.71 0.07,-5.24 0.075,-0.748 0.198,-1.414 0.358,-1.98 0.062,-0.252 0.153,-0.413 0.238,-0.62 0.114,-0.297 0.22,-0.634 0.374,-0.833 0.016,-0.016 -0.007,-0.03 0,-0.046 0.007,-0.023 0.016,-0.038 0.023,-0.053 0.077,-0.123 0.084,-0.283 0,-0.406 -0.016,-0.016 -0.053,0 -0.07,-0.023 -0.083,-0.076 -0.19,-0.16 -0.305,-0.137 -0.084,0.007 -0.152,0.038 -0.214,0.092 -2.998,2.868 -4.97,4.97 -6.462,8.198 -0.727,1.568 -1.33,3.434 -1.874,5.744 0.076,-1.545 0.145,-2.975 0.237,-4.122 0.092,-1.148 0.245,-2.035 0.375,-2.364 0.07,-0.137 0.038,-0.313 -0.07,-0.428 -0.1,-0.115 -0.25,-0.145 -0.397,-0.092 -0.06,0.016 -0.092,0.07 -0.122,0.115 -0.03,0 -0.06,-0.03 -0.092,-0.022 -0.03,0.007 -0.053,0.016 -0.075,0.023 -1.897,0.873 -4.666,2.823 -7.006,5.27 -1.102,1.148 -2.074,2.417 -2.846,3.74 0.59,-2.432 1.155,-3.395 1.66,-4.382 0.16,-0.214 0.29,-0.36 0.474,-0.642 0.068,-0.123 0.068,-0.268 0,-0.383 -0.04,-0.07 -0.123,-0.092 -0.192,-0.122 0,-0.006 -0.016,0.008 -0.022,0 -0.046,-0.015 -0.07,-0.068 -0.115,-0.068 -0.04,0 -0.062,0.023 -0.1,0.023 -0.062,-0.007 -0.1,-0.07 -0.16,-0.046 -0.047,0.006 -0.055,0.076 -0.1,0.09 -10.47,0.957 -16.842,4.865 -20.55,9.316 -2.464,2.96 -3.695,6.065 -4.307,8.704 0.46,-6.73 4.482,-13.048 10.294,-15.373 3.304,-1.315 7.786,-1.912 11.817,-2.646 3.885,-0.703 7.35,-1.513 9.047,-3.425 4.743,-1.645 8.223,-6.127 10.632,-10.868 2.44,-4.803 3.8,-9.85 4.283,-12.513 2.073,-11.44 0.023,-23.51 6.348,-32.98 3.166,-4.735 8.413,-8.85 17.407,-11.963 8.994,-3.11 21.713,-5.195 39.73,-5.813 14.57,-0.5 23.412,-2.36 29.5,-4.623 6.095,-2.263 9.43,-4.93 13.002,-7.03 1.996,-1.173 5.445,-4.124 9.093,-6.6 1.82,-1.24 3.686,-2.342 5.4,-3.05 0.74,-0.31 1.437,-0.487 2.103,-0.62 z m -140.693,1.834 c -0.566,1.37 -1.308,2.75 -2.157,3.907 -0.65,0.883 -1.262,1.63 -1.728,2.145 -0.23,0.257 -0.42,0.446 -0.543,0.572 -0.023,0.026 -0.03,0.052 -0.046,0.072 -0.006,0.008 -0.015,0.015 -0.022,0.023 -0.016,0.006 -0.04,0.014 -0.054,0.023 0,0.003 -0.016,-0.002 -0.023,0 -0.037,0.03 -0.068,0.075 -0.09,0.12 -2.586,0.33 -5.102,0.705 -7.197,1.572 -0.283,0.115 -0.475,0.342 -0.735,0.476 -1.545,-0.53 -2.937,-0.835 -4.405,-1.238 0,-0.01 0.023,-0.01 0.023,-0.023 0.046,-0.174 0.245,-0.39 0.665,-0.62 0.414,-0.233 1.02,-0.45 1.753,-0.668 1.46,-0.44 3.434,-0.88 5.49,-1.454 3.35,-0.935 6.877,-2.35 9.072,-4.91 z m 144.984,0.047 c 0.366,0.057 0.64,0.172 0.825,0.31 0.374,0.275 0.49,0.666 0.428,1.19 -0.06,0.462 -0.36,0.99 -0.734,1.503 0.052,-0.366 0.167,-0.755 0.022,-1.05 -0.32,-0.638 -1.01,-0.92 -1.73,-1.07 0.13,-0.29 0.284,-0.562 0.353,-0.86 0.29,-0.01 0.612,-0.057 0.834,-0.023 z m -135.47,3.36 c -1.3,6.793 -4.957,11.064 -8.52,13.773 -1.92,1.46 -3.787,2.502 -5.186,3.29 -0.704,0.393 -1.3,0.717 -1.73,1.024 -0.213,0.153 -0.38,0.313 -0.52,0.476 -0.144,0.164 -0.26,0.354 -0.26,0.596 0,0.21 0.17,0.38 0.376,0.38 0.604,-0.01 2.134,-0.028 3.625,-0.047 0.566,-0.008 0.788,-0.018 1.277,-0.024 1.736,3.652 2.425,8.812 2.295,14.727 -0.138,6.35 -1.14,13.48 -2.555,20.324 -1.415,6.884 -3.09,14.516 -3.05,21.117 0.015,3.296 0.457,6.34 1.605,8.91 0.933,2.072 2.348,3.83 4.313,5.124 -0.36,0.566 -0.986,1.063 -1.988,1.453 -1.193,0.46 -2.754,0.796 -4.45,1.072 -3.412,0.558 -7.405,0.895 -10.326,1.766 -1.958,0.582 -6.28,2.792 -9.59,6.77 -2.77,3.31 -4.628,7.953 -3.817,13.72 -0.055,0.107 -0.093,0.23 -0.047,0.336 0.07,0.168 0.145,0.337 0.214,0.497 0.16,0.888 0.2,1.714 0.497,2.647 v 0.023 c 0.054,0.207 0.268,0.322 0.474,0.268 0.2,-0.054 0.314,-0.252 0.26,-0.45 0,-0.017 0.008,-0.04 0,-0.055 -0.015,-0.053 -0.008,-0.107 -0.023,-0.168 -0.068,-0.29 -0.068,-0.58 -0.122,-0.88 0.696,0.352 1.614,0.543 2.73,0.574 -1.376,3.165 -2.37,6.775 -3.013,10.63 -0.696,-1.07 -1.736,-2.065 -3.143,-2.983 0.107,-0.42 0.19,-0.85 0.183,-1.308 -0.023,-2.196 -1.453,-4.727 -4.71,-7.77 0.236,-0.368 0.45,-0.743 0.596,-1.17 0.65,-1.952 0.19,-4.445 -1.706,-7.764 1.208,-1.973 1.224,-4.933 -0.52,-9.438 -0.015,-0.03 -0.054,-0.023 -0.076,-0.046 0.168,-0.16 0.35,-0.283 0.497,-0.46 1.46,-1.765 1.836,-4.51 0.62,-8.695 -0.008,-0.016 -0.023,-0.016 -0.023,-0.022 0.3,-0.23 0.597,-0.467 0.85,-0.765 1.39,-1.63 1.95,-4.237 1.33,-8.29 0.52,-0.26 1.01,-0.567 1.415,-1.026 1.285,-1.43 1.843,-3.892 1.514,-7.816 0.94,-0.313 1.797,-0.772 2.463,-1.476 1.276,-1.346 1.842,-3.487 1.398,-6.677 0.643,-0.298 1.262,-0.642 1.752,-1.216 1.147,-1.324 1.744,-3.45 1.537,-6.57 0.444,-0.184 0.872,-0.36 1.163,-0.673 0.772,-0.82 0.948,-2.035 0.925,-3.786 -0.023,-1.483 -0.2,-3.67 -0.33,-6.148 0.56,-0.864 0.995,-1.85 1.156,-3.098 0.253,-1.92 0.016,-4.328 -0.756,-7.34 0.948,-2.334 1.537,-5.015 1.354,-8.27 0.696,0.24 1.483,0.395 2.462,0.216 1.155,-0.212 2.532,-0.863 4.19,-2.073 0.04,-0.03 0.078,-0.04 0.116,-0.072 0.03,-0.02 0.046,-0.027 0.07,-0.047 0.16,-0.12 0.205,-0.332 0.098,-0.5 -0.107,-0.17 -0.32,-0.236 -0.497,-0.144 -0.023,0.01 -0.03,0.037 -0.046,0.048 -0.412,0.215 -0.802,0.486 -1.115,0.667 -0.33,0.19 -0.55,0.234 -0.735,0.166 -1.667,-0.628 -2.072,0.1 -6.822,-3.837 -0.068,-0.064 -0.16,-0.1 -0.26,-0.096 -0.122,0.006 -0.237,0.062 -0.306,0.167 -0.06,0.105 -0.068,0.244 -0.023,0.358 0.022,0.057 0.068,0.11 0.09,0.167 0.016,0.01 0.016,0.015 0.032,0.024 0.45,0.968 1.3,1.883 2.172,2.62 0.36,0.3 0.558,0.365 0.88,0.596 -1.087,-0.25 -1.966,-0.625 -2.677,-0.953 -0.146,-0.062 -0.314,-0.04 -0.43,0.072 -0.106,0.11 -0.13,0.285 -0.068,0.43 2.057,4.793 0.558,10.584 -3.006,14.388 -3.518,3.763 -8.987,5.576 -15.036,2.67 -0.07,-0.153 -0.237,-0.238 -0.406,-0.215 -0.09,0.023 -0.153,0.092 -0.214,0.17 -0.008,0.014 -0.038,0.007 -0.046,0.022 -0.81,1.4 -1.522,2.676 -3.005,4.053 -0.918,0.85 -2.31,1.782 -4.023,2.76 0.742,-0.71 1.262,-1.376 1.606,-2.05 0.72,-1.383 0.696,-2.737 0.62,-4.45 -0.01,-0.176 -0.123,-0.32 -0.284,-0.36 -0.168,-0.038 -0.344,0.04 -0.428,0.192 -1.078,1.98 -4.405,4.918 -9.85,6.937 2.27,-1.897 3.747,-3.924 3.862,-5.935 0.008,-0.16 -0.077,-0.314 -0.214,-0.383 -0.146,-0.068 -0.314,-0.038 -0.43,0.07 -2.997,2.653 -8.22,3.494 -13.306,3.816 1.124,-0.536 2.21,-1.316 3.197,-2.387 1.934,-2.11 3.502,-5.33 4.474,-9.554 3.55,2.08 6.777,2.752 9.522,2.573 3.136,-0.204 5.606,-1.398 7.388,-2.454 -0.045,0.77 -0.09,1.43 -0.1,2.406 0,0.186 0.13,0.345 0.315,0.38 0.176,0.036 0.36,-0.062 0.42,-0.237 1.675,-3.976 2.5,-6.466 2.272,-8.556 -0.222,-2.09 -1.545,-3.648 -3.878,-5.696 -0.085,-0.076 -0.2,-0.11 -0.314,-0.095 -0.16,0.03 -0.283,0.166 -0.306,0.334 l -0.138,1.477 c -4.642,-0.263 -9.63,-4.695 -19.747,2.955 -0.245,-4.42 0.023,-7.32 1.2,-9.723 0.475,0.06 0.95,0.058 1.423,-0.024 0.948,-0.166 1.85,-0.706 2.51,-1.74 0.603,-0.94 0.97,-2.34 1.115,-4.194 6.057,0.268 12.948,1.4 20.436,3.55 l 0.068,0.023 c 0.175,0.035 0.36,-0.07 0.428,-0.238 0.015,-0.042 -0.023,-0.076 -0.023,-0.12 0.008,-0.016 0.038,-0.004 0.046,-0.023 0.06,-0.18 -0.024,-0.367 -0.192,-0.452 l -0.046,-0.025 c -0.023,-0.005 -0.03,-0.018 -0.046,-0.024 -1.224,-0.498 -2.18,-1.03 -3.006,-1.547 -0.528,-0.47 -0.98,-0.97 -1.14,-1.478 -0.374,-1.19 0.16,-2.47 1.874,-3.527 3.373,-2.084 11.38,-2.842 24.36,1.525 -0.49,0.638 -0.926,1.333 -1.21,2.193 -0.052,0.165 0,0.357 0.146,0.453 0.146,0.094 0.345,0.07 0.475,-0.05 3.724,-3.657 8.87,-4.223 13.873,-4.98 4.482,-0.677 8.772,-1.717 11.67,-5.314 z m -3.74,5.886 c -0.077,0.008 -0.154,0.042 -0.215,0.095 -3.228,2.57 -6.088,3.382 -9.23,3.932 -2.655,0.396 -3.818,1.386 -4.498,1.835 -0.176,0.112 -0.306,0.184 -0.406,0.214 -0.098,0.03 -0.16,0.03 -0.26,0 -0.198,-0.062 -0.588,-0.35 -1.184,-1.026 -0.115,-0.11 -0.283,-0.14 -0.42,-0.07 -0.146,0.068 -0.23,0.222 -0.215,0.38 0.01,0.047 0.055,0.142 0.07,0.19 0.008,0.013 0.015,0.013 0.023,0.025 0.153,0.63 0.52,1.465 1.017,2.334 0.275,0.475 0.566,0.938 0.834,1.31 0.26,0.373 0.474,0.66 0.757,0.835 0.093,0.057 0.2,0.08 0.307,0.047 0.107,-0.032 0.19,-0.115 0.237,-0.214 1.017,-2.168 1.897,-3.44 2.623,-4.124 0.734,-0.684 1.27,-0.797 1.736,-0.716 0.46,0.083 0.895,0.413 1.3,0.74 0.2,0.162 0.39,0.323 0.59,0.452 0.206,0.13 0.42,0.248 0.71,0.19 0.1,-0.01 0.2,-0.06 0.26,-0.142 1.163,-1.663 3.465,-3.46 6.203,-5.6 0.138,-0.1 0.2,-0.27 0.146,-0.43 -0.054,-0.16 -0.215,-0.268 -0.383,-0.26 z m -102.408,1.072 c 4.45,6.24 10.27,12.11 18.615,16.538 -3.41,0.34 -6.027,-0.37 -8.2,-1.763 -2.798,-1.8 -4.886,-4.746 -6.913,-7.936 l -0.022,-0.047 c -0.085,-0.136 -0.245,-0.202 -0.398,-0.167 -0.122,0.024 -0.214,0.107 -0.26,0.214 -0.054,0.108 -0.06,0.228 0,0.334 0,0.012 0.015,0.012 0.023,0.024 2.768,5.943 5.032,8.644 6.44,10.628 1.27,1.792 1.79,3.005 1.537,5.623 -3.373,-2.523 -5.99,-6.866 -7.77,-11.46 -1.79,-4.633 -2.685,-9.06 -3.052,-11.988 z m 225.204,0.453 c -2.21,3.08 -4.36,6.705 -5.897,10.866 -3.144,8.525 -3.802,18.83 2.225,27.785 -13.46,-5.087 -33.858,-8.17 -52.588,-9.96 -10.386,-0.994 -20.237,-1.564 -28.007,-1.86 -6.983,-0.265 -11.426,-0.232 -14.042,-0.095 1.185,-2.1 4.092,-4.1 8.168,-5.79 4.535,-1.886 10.348,-3.447 16.19,-4.695 11.703,-2.497 23.656,-3.73 26.165,-3.813 18.6,-0.613 31.656,-4.4 40.566,-8.507 2.868,-1.32 5.163,-2.642 7.22,-3.932 z m -166.268,1.358 c -0.612,-0.044 -1.33,0.02 -2.203,0.215 -0.184,0.047 -0.298,0.22 -0.283,0.406 0.046,0.59 0.32,1.02 0.688,1.334 0.367,0.313 0.796,0.53 1.255,0.81 0.91,0.562 1.957,1.34 2.745,3.408 0.06,0.137 0.184,0.233 0.33,0.24 0.152,0.003 0.29,-0.084 0.358,-0.216 0.153,-0.324 0.2,-0.59 0.26,-0.74 0.016,-0.038 0.054,-0.043 0.07,-0.07 0.13,0.14 0.267,0.26 0.473,0.476 0.147,0.154 0.338,0.327 0.59,0.406 0.26,0.078 0.56,0.054 0.88,-0.05 3.02,-0.932 5.063,-1.397 6.485,-1.5 1.43,-0.102 2.203,0.138 2.823,0.668 0.145,0.1 0.344,0.095 0.474,-0.024 0.13,-0.12 0.153,-0.323 0.07,-0.477 -0.024,-0.034 -0.047,-0.037 -0.07,-0.07 -1.484,-2.18 -3.006,-2.94 -4.55,-3.122 -1.57,-0.185 -3.12,0.123 -4.903,-0.167 -1.806,-0.293 -2.8,-0.782 -3.833,-1.142 -0.52,-0.18 -1.048,-0.338 -1.66,-0.382 z m 0.428,1.144 c 0.818,0.113 2.692,0.825 3.388,0.81 -0.467,1.62 0.42,2.29 1.23,2.717 -2.377,0.298 -4.534,-3.27 -4.618,-3.527 z m -23.54,0.024 c 0.068,0.76 0.1,1.917 -0.238,2.86 -0.206,0.59 -0.512,1.015 -1.017,1.215 -0.496,0.197 -1.26,0.17 -2.385,-0.334 -0.008,-0.003 -0.023,0.002 -0.03,0 -0.75,-0.397 -2.984,-1.48 -5.393,-2.12 -0.566,-0.152 -1.124,-0.145 -1.682,-0.216 3.066,-0.92 6.646,-1.407 10.745,-1.406 z m 31.968,1.12 c 1.185,-0.128 2.172,0.578 1.063,1.19 -1.124,0.625 -3.067,1.515 -4.237,1.145 1.132,-0.058 1.49,-1.35 0.97,-2.217 -0.42,-0.085 1.02,0.008 2.204,-0.12 z m 5.377,3.932 c -2.034,-0.046 -3.32,0.042 -4.29,0.31 -0.98,0.27 -1.62,0.71 -2.363,1.24 -0.13,0.086 -0.2,0.252 -0.17,0.404 0.032,0.15 0.162,0.257 0.307,0.286 0.742,0.15 1.132,0.23 1.285,0.31 0.068,0.038 0.083,0.067 0.137,0.143 0.053,0.074 0.122,0.183 0.214,0.38 0.055,0.136 0.185,0.233 0.33,0.238 0.153,0.005 0.29,-0.082 0.36,-0.214 0.52,-1.085 0.978,-1.608 1.583,-1.907 0.558,-0.274 1.376,-0.348 2.462,-0.404 0.092,0.002 0.1,-0.027 0.19,-0.025 v -0.024 h 0.024 c 0.168,-0.048 0.29,-0.206 0.282,-0.38 -0.008,-0.175 -0.137,-0.32 -0.306,-0.358 h -0.045 z m 215.545,2.883 c -14.454,16.592 -17.865,34.52 -18.806,40.013 -1.905,-3.29 -4.26,-6.945 -2.793,-11.534 v -0.03 c 3.473,-8.345 4.643,-9.7 13.805,-21.588 0.007,-0.013 0.016,-0.01 0.023,-0.024 0.115,-0.16 0.1,-0.393 -0.046,-0.524 -0.146,-0.13 -0.383,-0.114 -0.52,0.024 -0.008,0.01 -0.017,0.015 -0.024,0.024 -0.016,0.013 -0.016,0.01 -0.023,0.024 -0.038,0.04 -0.06,0.08 -0.1,0.118 0,0.004 -0.015,-0.004 -0.022,0 -9.88,8.252 -14.355,13.87 -18.232,17.608 -3.618,3.496 -6.807,5.33 -13.377,6.295 12.032,-10.195 17.584,-19.407 40.115,-30.408 z M 217.1,169.094 c 0.107,0.035 0.1,0.006 0.214,0.048 0.956,0.35 2.165,0.955 3.358,1.93 1.935,1.577 3.763,4.246 4.505,8.483 -0.704,-1.092 -1.622,-1.837 -2.63,-2.24 -1.63,-0.65 -3.305,-0.638 -4.384,-0.643 -0.1,-0.89 -0.152,-1.878 -0.283,-2.693 1.293,-0.075 2.608,-0.073 3.954,1.31 0.146,0.14 0.375,0.156 0.52,0.025 0.153,-0.13 0.17,-0.365 0.046,-0.525 -0.007,-0.01 -0.016,-0.013 -0.022,-0.024 -1.668,-2.228 -3.358,-3.365 -4.903,-3.407 -0.138,-0.736 -0.245,-1.512 -0.375,-2.265 z m -88.748,3.837 c 0.276,0.153 0.574,0.22 0.857,0.357 4.29,3.148 7.96,4.972 11.502,5.575 3.7,0.63 7.258,0.018 11.273,-1.453 h 0.023 c 0.84,-0.372 2.485,-0.773 4.45,-1.072 1.966,-0.3 4.284,-0.507 6.563,-0.525 2.272,-0.018 4.506,0.156 6.295,0.596 1.255,0.31 2.142,0.793 2.822,1.36 -3.556,-0.744 -6.93,-1.005 -11.06,-0.787 -0.098,0.004 -0.19,0.047 -0.26,0.12 -0.13,0.127 -0.282,0.22 -0.26,0.523 0.01,0.15 0.14,0.3 0.238,0.358 0.1,0.06 0.184,0.06 0.26,0.07 0.306,0.042 0.65,-0.01 1.132,-0.07 0.972,-0.12 2.37,-0.307 3.817,-0.19 1.438,0.116 2.11,0.17 5.346,1.214 0.237,0.23 0.36,0.533 0.45,0.858 -0.114,-0.04 -0.244,-0.093 -0.42,-0.143 -0.374,-0.104 -0.887,-0.223 -1.522,-0.357 -1.27,-0.27 -3.02,-0.565 -4.994,-0.786 -3.94,-0.444 -8.795,-0.57 -12.642,0.595 h -0.023 c -3.343,1.37 -7.74,2.05 -12.054,1.334 -4.077,-0.677 -8.038,-2.66 -11.06,-6.41 -0.252,-0.38 -0.48,-0.79 -0.734,-1.168 z m 265.32,6.84 c -7.756,9.354 -11.825,17.3 -13.95,22.83 -1.278,3.32 -1.93,5.812 -2.44,7.242 -0.223,0.62 -0.437,0.918 -0.567,1.07 -0.994,-0.81 -1.996,-1.567 -3.052,-2.24 0.017,-0.352 0.04,-0.727 0.26,-1.354 0.283,-0.833 0.742,-1.858 1.347,-3.05 1.216,-2.387 3.043,-5.416 5.33,-8.728 3.434,-4.963 7.947,-10.583 13.07,-15.77 z m -175.25,4.955 c 2.434,1.638 4.827,3.573 6.135,6.41 1.048,2.28 1.423,5.155 0.597,8.91 -0.222,-1.813 -0.987,-3.35 -2.157,-4.336 -0.98,-0.818 -2.18,-1.26 -3.41,-1.284 -0.82,-0.015 -1.638,0.26 -2.418,0.665 0.244,-1.46 0.443,-2.844 0.62,-4.12 0.328,-0.085 0.794,-0.116 1.39,0.098 0.69,0.237 1.46,0.673 2.18,1.193 0.727,0.514 1.392,1.133 1.874,1.737 0.482,0.605 0.765,1.186 0.78,1.622 0.007,0.205 0.168,0.358 0.375,0.358 0.213,-0.008 0.39,-0.176 0.38,-0.382 -0.022,-0.558 -0.297,-1.1 -0.664,-1.644 -0.115,-0.215 -0.115,-0.406 -0.26,-0.62 -0.535,-0.803 -1.24,-1.614 -1.99,-2.363 -0.748,-0.75 -1.56,-1.424 -2.27,-1.906 -0.558,-0.382 -1.025,-0.634 -1.49,-0.71 0.13,-1.27 0.266,-2.53 0.327,-3.627 z m -26.99,1.408 c 0.805,1.973 0.996,3.572 0.69,4.81 -0.337,1.34 -1.163,2.35 -2.348,3.144 -2.057,1.4 -5.11,2.026 -7.885,2.477 -0.284,-0.084 -0.79,-0.145 -0.927,-0.237 -0.145,-0.1 -0.183,-0.19 -0.206,-0.26 -0.03,-0.07 -0.03,-0.122 0,-0.214 0.008,-0.03 0.053,-0.06 0.07,-0.092 0.12,-0.153 0.16,-0.26 0.396,-0.46 0.444,-0.35 1.063,-0.78 1.782,-1.26 1.423,-0.957 3.25,-2.188 5.04,-3.81 1.232,-1.124 2.37,-2.53 3.388,-4.1 z m 50.486,1.5 c 28.68,1.1 36.267,3.08 55.19,5.292 13.084,1.522 25.076,5.024 33.765,7.174 l 0.168,0.046 c -8.45,2.104 -12.328,7.404 -13.498,12.65 -0.68,3.052 -0.52,6.05 0,8.436 0.176,0.81 0.444,1.423 0.688,2.073 -10.14,-6.18 -26.064,-13.56 -41.268,-19.847 -8.32,-3.442 -16.33,-6.53 -22.853,-8.864 -5.63,-2.01 -9.767,-3.312 -12.505,-3.954 -0.207,-0.964 -0.23,-2.134 0.313,-3.006 z m -2.202,6.913 c 0.35,0.054 0.75,0.138 1.468,0.352 0.918,0.283 2.08,0.688 3.457,1.193 2.74,1.002 6.265,2.386 10.158,3.954 7.77,3.143 16.978,7.03 24.152,10.01 7.862,3.275 18.86,9.76 27.892,14.777 0.452,0.245 0.81,0.444 1.255,0.69 -0.444,-0.008 -0.788,-0.085 -1.255,-0.07 -3.028,0.084 -6.615,0.68 -10.156,2.004 -6.83,2.54 -13.522,7.862 -15.87,17.514 -0.26,-0.383 -0.413,-0.666 -0.71,-1.08 -3.993,-5.536 -11.052,-13.956 -20.666,-26.254 -5.943,-7.603 -11.84,-13.147 -15.633,-17.086 -1.896,-1.973 -3.265,-3.564 -3.83,-4.72 -0.277,-0.542 -0.323,-0.955 -0.26,-1.284 z m -48.826,0.81 c 0.444,2.356 0.482,4.1 0.16,5.263 -0.335,1.255 -1,1.95 -2.01,2.41 -1.492,0.673 -3.9,0.75 -6.555,0.88 -0.994,-0.154 -1.606,-0.498 -1.942,-0.957 -0.36,-0.482 -0.452,-1.11 -0.36,-1.805 0.176,-1.37 1.11,-2.936 1.943,-3.694 h 0.046 c 0.275,0.008 0.32,-0.03 0.78,0.023 0.076,0 0.092,-0.076 0.145,-0.122 3.136,-0.222 5.904,-0.68 7.793,-1.996 z m 153.72,5.194 c 0.044,0.06 0.13,0.1 0.167,0.168 0.23,0.428 0.214,1.01 -0.03,1.614 -0.238,0.612 -0.697,1.216 -1.232,1.62 -0.023,0.024 -0.046,0.01 -0.07,0.024 0.292,-0.367 0.506,-0.78 0.567,-1.208 0.077,-0.513 0.016,-1.033 -0.138,-1.507 0.085,-0.046 0.207,-0.084 0.283,-0.138 0.2,-0.153 0.306,-0.374 0.452,-0.573 z m -106.034,0.642 c 0.184,0.107 0.252,0.084 0.497,0.283 1.163,0.956 2.86,2.853 4.857,5.293 3.984,4.87 9.216,11.938 14.302,18.3 5.27,6.602 9.475,14.19 13.208,19.848 0.596,0.903 1.162,1.644 1.728,2.432 -1.774,-0.52 -3.747,-0.933 -5.965,-0.948 -1.186,-0.016 -2.425,0.076 -3.67,0.283 -4.766,0.795 -9.73,3.503 -13.5,9.36 -0.803,-4.78 -2.486,-10.752 -4.543,-17.56 -3.013,-9.964 -4.788,-13.72 -6.01,-16.13 -1.225,-2.385 -1.898,-3.402 -2.778,-7.914 0.007,-0.015 0.03,-0.03 0.023,-0.045 -0.153,-1.943 0.2,-5.644 0.734,-8.72 0.267,-1.544 0.58,-2.936 0.88,-3.884 0.083,-0.275 0.152,-0.412 0.236,-0.596 z m -22.57,1.308 c 0.49,0.734 1.155,1.423 1.997,2.126 1.246,1.04 2.692,2.165 3.81,3.572 1.115,1.407 1.903,3.097 1.82,5.338 -0.055,1.698 -0.873,3.855 -2.204,6.317 0.167,-1.17 0.122,-2.233 -0.26,-3.097 -0.643,-1.476 -1.882,-2.51 -3.167,-3.266 -1.293,-0.757 -2.654,-1.24 -3.557,-1.598 -0.214,-0.084 -0.305,-0.13 -0.45,-0.19 0.26,-0.973 0.596,-1.692 1.047,-2.005 0.604,-0.422 1.37,-0.4 2.195,-0.116 0.834,0.275 1.683,0.81 2.37,1.407 0.69,0.59 1.194,1.263 1.324,1.592 0.084,0.19 0.29,0.283 0.474,0.214 0.19,-0.068 0.298,-0.283 0.237,-0.474 0,-0.007 0.007,-0.016 0,-0.023 0,-0.017 -0.016,-0.04 -0.023,-0.047 -1.086,-2.898 -3.15,-3.71 -4.474,-4.65 -0.665,-0.474 -1.155,-0.94 -1.37,-1.79 -0.19,-0.71 -0.113,-1.827 0.23,-3.31 z m -90.896,0.81 c 2.784,-0.1 4.84,1.018 5.942,2.96 -0.336,0.245 -0.65,0.23 -1.162,0.33 -0.3,-1.056 -2.035,-2.272 -3.572,-2.5 -0.122,-0.078 -0.275,-0.1 -0.405,-0.024 -0.123,0.076 -0.2,0.214 -0.192,0.36 0.017,0.144 0.13,0.282 0.27,0.328 1.108,0.558 2.332,0.987 1.865,2.004 -0.566,0.007 -0.91,0.023 -1.37,-0.023 -0.022,-1.08 -2.263,-2.088 -4.38,-2.906 1.077,-0.32 2.072,-0.49 3.005,-0.527 z m 63.738,1.362 c 0.207,2.83 -0.36,4.474 -1.323,5.384 -0.994,0.933 -2.47,1.2 -4.122,1.17 -1.614,-0.038 -3.335,-0.382 -4.85,-0.55 -0.052,-0.07 -0.075,-0.16 -0.167,-0.168 h -0.046 c -0.46,-0.03 -0.772,-0.146 -0.948,-0.283 -0.184,-0.153 -0.268,-0.337 -0.283,-0.597 -0.032,-0.52 0.32,-1.315 0.87,-2.096 0.56,-0.787 1.293,-1.552 2.012,-2.072 0.642,-0.474 1.193,-0.635 1.545,-0.62 2.562,0.016 4.994,0.046 6.508,-0.053 0.322,-0.016 0.52,-0.085 0.803,-0.116 z m 171.722,2.096 c 11.18,0.03 25.3,11.44 25.307,27.785 0.007,11.35 -6.546,30.317 -30.783,38.577 -6.784,-13.384 -19.694,-25.277 -36.366,-30.998 -0.077,-0.038 -0.16,-0.046 -0.238,-0.023 -0.168,0.04 -0.305,0.185 -0.305,0.353 -0.007,0.176 0.114,0.337 0.283,0.383 18.156,6.233 30.27,20.35 36.25,35.196 1.592,3.954 5.538,9.37 9.47,13.04 3.938,3.663 8.45,6.042 12.833,6.15 2.976,0.068 6.31,1.796 7.725,5.666 1.11,3.06 1.033,6.967 -1.76,11.204 0.483,-1.866 0.093,-3.426 -0.565,-4.48 -1.078,-1.73 -3.342,-2.418 -4.825,-2.365 -2.6,0.107 -4.107,1.278 -7.648,3.15 -0.192,0.093 -0.268,0.33 -0.17,0.52 0.055,0.108 1.31,0.23 2.632,0.26 0.152,2.066 3.295,23.772 3.785,26.86 2.386,15.09 12.826,7.772 14.608,8.055 3.41,0.535 4.137,1.484 5.254,2.577 -1.178,0.09 -2.096,3.586 -1.514,5.903 -4.215,3.075 -8.467,-1.59 -11.58,-1.62 -3.594,0.09 -7.487,2.57 -11.602,3.86 -3.77,1.187 -5.643,2.12 -10.37,-0.045 0.735,-0.214 1.614,-0.474 1.683,-0.474 0.1,-0.007 0.2,0 0.26,0 0.07,-0.007 0.084,-0.007 0.17,-0.03 0.144,0 0.274,-0.092 0.327,-0.237 0.06,-0.138 0.04,-0.29 -0.068,-0.406 -0.107,-0.106 -0.26,-0.144 -0.406,-0.09 0.046,-0.008 -0.016,-0.008 -0.07,0 h -0.236 c -0.2,0.006 -0.46,0.016 -0.78,0.022 -0.642,0.007 -1.483,0.023 -2.37,0.023 -1.767,0.007 -3.687,0 -4.452,0 -2.01,0 -4.918,0.604 -7.365,1.928 -2.44,1.33 -4.267,2.967 -6.53,2.936 -1.28,-0.023 -2.61,-0.245 -3.718,-1.102 0.573,-2.057 0.482,-4.742 -1.07,-7.006 l -0.376,-0.022 c 2.63,-0.368 3.556,-1.698 5.3,-1.737 2.05,-0.053 2.026,4.092 12.626,-2.692 0.123,-0.067 0.214,-0.19 0.207,-0.335 0,-0.146 -0.084,-0.29 -0.207,-0.36 -0.13,-0.06 -0.29,-0.038 -0.405,0.054 -9.368,4.25 -6.454,1.04 -11.272,1.26 -4.574,0.207 -4.712,1.722 -7.457,1.69 -1.422,-0.015 -3.104,-0.71 -3.456,-1.383 1.04,-0.245 1.468,-3.77 0.925,-5.6 0.006,-0.075 0.06,-0.15 0.068,-0.19 0.046,-0.16 -0.038,-0.33 -0.168,-0.428 0.604,-0.728 2.248,-1.026 3.717,-1.026 1.33,0.023 3.135,1.262 5.216,2.142 2.072,0.887 3.916,-0.735 6.462,0.956 0.184,0.107 0.413,0.038 0.52,-0.146 0.107,-0.183 0.04,-0.413 -0.145,-0.52 -0.895,-0.505 -2.77,-2.485 -4.872,-3.388 -1.323,-0.558 -2.86,-0.902 -4.29,-1.14 -0.987,-0.925 -2.746,-2.546 -2.51,-2.692 0.506,-0.313 1.01,-0.734 1.447,-1.262 0.436,-0.527 0.803,-1.147 0.925,-1.812 0.077,-0.436 -0.038,-0.612 -0.19,-0.91 0.037,-0.138 0.09,-0.222 0.136,-0.43 0.543,-0.603 0.888,-0.9 1.683,-0.97 1.23,0.123 1.942,0.566 2.96,1.568 1.024,1.01 2.11,2.5 3.104,4.268 1.468,2.623 3.45,4.114 5.468,5.453 -0.642,0.528 -1.407,1.178 -1.468,1.17 -0.1,-0.006 -0.176,-0.045 -0.352,0.047 -0.2,0.092 -0.275,0.306 -0.19,0.505 0.083,0.198 0.297,0.298 0.496,0.214 0.046,0 0.13,0 0.237,0.023 0.214,0.037 0.512,0.13 0.872,0.213 0.72,0.168 1.667,0.382 2.654,0.527 0.987,0.138 2.012,0.192 2.938,0.023 0.925,-0.168 1.79,-0.573 2.248,-1.407 3.15,-5.682 2.853,-14.164 1.04,-21.713 -1.805,-7.51 -7.204,-17.736 -7.41,-17.82 -0.215,-2.5 -6.394,-10.087 -7.74,-8.367 0.016,-0.283 0.076,-0.543 -0.023,-0.856 -0.16,-0.474 -0.413,-1.017 -0.757,-1.553 -0.696,-1.07 -1.714,-2.21 -2.8,-3.143 -1.078,-0.933 -2.21,-1.66 -3.265,-1.836 -0.527,-0.084 -1.062,-0.03 -1.49,0.26 -0.115,0.084 -0.146,0.283 -0.238,0.383 -0.168,-0.542 -0.46,-1.085 -0.872,-1.666 -0.765,-1.048 -1.843,-2.134 -2.99,-3 -1.14,-0.87 -2.333,-1.52 -3.38,-1.72 -0.528,-0.09 -1.04,-0.083 -1.47,0.146 -0.037,0.023 -0.037,0.092 -0.068,0.122 -0.145,-0.42 -0.352,-0.833 -0.665,-1.292 -0.734,-1.033 -1.86,-2.157 -3.128,-3.02 -1.27,-0.865 -2.67,-1.477 -3.978,-1.43 -0.727,0.022 -1.377,0.328 -1.943,0.855 -0.04,-0.833 -0.26,-1.667 -0.69,-2.455 -0.78,-1.445 -2.064,-2.768 -3.48,-3.717 -1.414,-0.956 -2.943,-1.56 -4.26,-1.476 -0.657,0.04 -1.27,0.276 -1.727,0.735 l -0.023,0.022 c -0.146,-0.88 -0.452,-1.705 -1.017,-2.378 -1.002,-1.193 -2.51,-2.05 -4.054,-2.577 -1.538,-0.522 -3.114,-0.69 -4.353,-0.453 -0.627,0.123 -1.17,0.33 -1.568,0.72 -0.1,0.1 -0.16,0.23 -0.238,0.35 -0.046,-0.068 -0.007,-0.167 -0.068,-0.236 -0.36,-0.443 -0.865,-0.856 -1.47,-1.215 -1.207,-0.72 -2.82,-1.277 -4.427,-1.522 -0.803,-0.123 -1.614,-0.176 -2.363,-0.123 -0.757,0.062 -1.438,0.222 -2.042,0.528 -0.75,0.383 -1.216,1.11 -1.47,1.973 -0.412,-0.672 -0.97,-1.215 -1.75,-1.498 -1.316,-0.48 -2.975,-0.48 -4.543,-0.19 -1.57,0.29 -3.06,0.87 -4.055,1.644 -0.29,0.23 -0.42,0.535 -0.61,0.81 -0.216,-0.168 -0.346,-0.405 -0.62,-0.52 -1.11,-0.497 -2.708,-0.665 -4.307,-0.55 -1.598,0.114 -3.19,0.512 -4.26,1.33 -0.543,0.413 -0.956,0.933 -1.116,1.576 -0.007,0.046 0.007,0.1 0,0.145 -0.36,-0.206 -0.68,-0.436 -1.163,-0.528 -1.423,-0.268 -3.29,-0.115 -5.018,0.36 -1.72,0.473 -3.312,1.245 -4.145,2.377 -0.367,0.513 -0.543,1.11 -0.497,1.744 -0.283,-0.09 -0.505,-0.267 -0.826,-0.312 -1.46,-0.184 -3.25,0.137 -4.857,0.718 -1.598,0.582 -3.02,1.415 -3.763,2.478 -0.26,0.375 -0.39,0.81 -0.428,1.24 -0.466,-0.2 -0.94,-0.398 -1.49,-0.43 -1.5,-0.09 -3.214,0.345 -4.713,1.072 -1.5,0.726 -2.8,1.72 -3.365,2.883 -0.137,0.282 -0.22,0.58 -0.26,0.88 -0.55,-0.093 -1.124,-0.13 -1.698,-0.047 -0.48,0.076 0.43,-1.66 1.324,-3.29 0.61,-0.787 1.116,-1.55 1.843,-2.408 0.206,-0.046 0.336,-0.245 0.29,-0.45 -0.053,-0.2 -0.275,-0.338 -0.474,-0.284 -0.053,0.008 -0.1,0.024 -0.145,0.047 -3.664,1.743 -6.723,6.233 -8.903,11.388 -2.18,5.162 -3.456,10.998 -3.388,15.518 v 0.045 c 0.513,4.39 2.15,6.54 3.128,8.582 0.972,2.034 1.377,3.96 -0.36,8.313 0,0.007 0.008,0.016 0,0.023 -1.108,2.225 -1.26,2.814 -4.328,4.336 3.404,-7.005 -7.334,-11.196 -19.135,-4.596 -0.138,0.053 -0.222,0.183 -0.237,0.336 -0.008,0.146 0.06,0.283 0.19,0.352 0.13,0.077 0.284,0.06 0.406,-0.023 0.85,-0.175 1.386,-0.19 2.15,-0.328 1.515,2.838 -4.803,8.91 -8.734,14.578 -2.072,2.998 -7.663,10.66 -7.67,14.278 -0.01,3.618 0.886,5.34 3.716,5.293 0.742,-0.015 2.11,0.062 3.74,-0.29 1.63,-0.352 4.046,-1.262 5.522,-1.262 1.445,0 2.356,0.115 3.786,1.285 -0.413,0.17 -3.38,5.4 -1.492,7.434 -0.145,0.367 -1.53,0.543 -1.942,0.55 -0.834,0.017 -3.052,-0.94 -4.306,-1.36 -2.524,-0.834 -3.648,-1.5 -6.28,-1.454 -2.706,0.054 -6.836,1.163 -9.804,2.195 -2.96,1.033 -5.575,1.798 -12.1,2.004 -0.825,0.023 -1.743,-0.168 -2.554,-0.382 1.08,-1.69 1.737,-2.165 1.798,-2.172 0.07,0 0.084,-0.007 0.168,-0.023 0.153,0 0.298,-0.1 0.352,-0.237 0.06,-0.138 0.015,-0.3 -0.092,-0.406 -0.107,-0.107 -0.26,-0.145 -0.405,-0.09 0.053,-0.018 -0.015,-0.008 -0.07,0 -0.053,0 -0.137,-0.008 -0.236,0 -0.19,0 -0.46,0.015 -0.78,0.02 -0.643,0.008 -6.792,1.126 -9.24,2.456 -2.44,1.33 -3.793,4.444 -6.056,4.406 -1.277,-0.016 -1.774,0.016 -2.89,-0.834 1.063,-5.086 -2.578,-6.585 -0.95,-7.885 1.714,0.23 8.108,1.048 14.09,-2.746 0.13,-0.062 0.22,-0.184 0.213,-0.33 0,-0.145 -0.084,-0.298 -0.214,-0.36 -0.123,-0.06 -0.284,-0.037 -0.4,0.047 -3.364,2.134 -5.796,-1.79 -8.427,-1.568 -4.566,0.374 -3.533,1.2 -6.28,1.162 -1.42,-0.017 -3.104,-0.712 -3.456,-1.377 0.94,-2.012 2.51,-4.803 1.66,-6.34 0.573,-0.758 1.4,-0.88 2.89,-0.88 1.324,0.016 1.974,1.24 4.047,2.12 7.357,3.777 5.185,0.794 10.822,2.86 0.183,0.106 0.413,0.037 0.52,-0.146 0.107,-0.185 0.183,-0.996 -0.52,-1.05 -6.34,-0.925 -8.115,-3.51 -9.545,-4.932 -0.45,-0.444 -1.513,-0.75 -2.653,-0.98 -3.06,-2.83 -3.06,-5.345 -2.77,-5.53 0.506,-0.305 2.158,-2.53 1.83,-3.073 0.672,-0.78 1.162,-0.536 2.057,-0.62 3.112,0.077 6.37,4.796 5.468,6.608 -0.054,0.1 2.7,2.616 4.382,4.666 1.323,1.612 4.092,4.932 7.717,4.266 0.047,0.092 0.093,0.184 0.192,0.214 0.13,0.04 0.283,0.007 0.383,-0.09 6.883,-6.242 11.87,-16.277 15.173,-25.194 1.652,-4.46 2.884,-8.65 3.694,-11.94 0.81,-3.287 1.21,-5.612 1.21,-6.6 -0.01,-5.008 -1.18,-12.97 -1.064,-20.71 0.1,-7.09 1.346,-13.904 5.346,-18.11 0.98,-0.192 1.996,-0.46 3.005,-0.834 2.554,-0.933 5.055,-2.54 7.036,-4.765 0.076,0.59 0.183,1.216 0.382,1.882 0.428,1.498 1.155,3.142 2.15,4.717 1.98,3.12 5.047,5.958 9.047,6.555 h 0.023 c 0.03,0.007 0.06,0.023 0.09,0.023 0.208,0.06 0.422,-0.054 0.476,-0.26 0.016,-0.04 -0.046,-0.054 -0.046,-0.092 0,-0.016 -0.023,-0.016 -0.023,-0.03 -0.016,-0.146 -0.038,-0.314 -0.19,-0.353 -0.04,-0.023 -0.078,-0.03 -0.116,-0.053 -0.536,-0.084 -0.842,-0.306 -1.072,-0.643 -0.222,-0.33 -0.36,-0.803 -0.375,-1.407 -0.038,-1.193 0.368,-2.8 0.972,-4.45 0.466,-1.286 1.078,-2.494 1.66,-3.65 1.154,2.502 2.875,5.186 5.66,6.915 3.226,2.003 7.678,2.592 13.398,0.068 0.016,-0.007 0.03,0.007 0.046,0 0.045,-0.016 0.076,-0.03 0.122,-0.045 0.068,-0.046 0.06,-0.146 0.09,-0.215 0.047,-0.046 0.124,-0.038 0.147,-0.1 0.015,-0.053 -0.047,-0.09 -0.055,-0.137 0,-0.007 -0.016,0.007 -0.023,0 -0.016,-0.115 -0.007,-0.252 -0.114,-0.313 -4.268,-2.05 -5.476,-4.582 -5.59,-7.03 -0.062,-1.322 0.198,-2.584 0.542,-3.762 2.287,2.585 5.025,4.62 7.464,5.553 1.346,0.513 2.593,0.72 3.618,0.498 0.512,-0.107 0.918,-0.375 1.254,-0.742 0.153,0.528 0.344,0.98 0.62,1.338 0.275,0.36 0.657,0.582 1.086,0.742 0.053,0.826 -0.1,1.46 -0.452,1.828 -0.443,0.474 -1.116,0.635 -1.75,0.505 h -0.116 l -0.045,0.022 h -0.024 c -0.023,0.007 -0.04,0.016 -0.054,0.023 -0.03,0.03 -0.07,0.06 -0.092,0.1 -0.016,0.006 -0.03,0.03 -0.046,0.045 l -0.023,0.046 c -0.037,0.076 -0.044,0.16 -0.022,0.237 v 0.023 c 0,0.016 0.007,0.038 0.023,0.054 v 0.022 l 0.024,0.046 c 0.054,0.077 0.153,0.077 0.214,0.146 0.007,0.007 0.007,0.03 0.023,0.046 0.27,0.313 0.59,0.543 0.95,0.688 0.13,0.054 0.26,0.084 0.397,0.122 0.146,0.03 0.283,0.107 0.43,0.115 0.113,0.016 0.213,-0.092 0.328,-0.092 0.22,0 0.42,0.084 0.642,0.046 1.14,-0.177 2.34,-0.796 3.358,-1.622 1.024,-0.826 1.858,-1.85 2.302,-2.952 0.436,-1.11 0.443,-2.333 -0.306,-3.312 -0.038,-0.046 -0.1,-0.023 -0.145,-0.046 0.123,-0.872 0.17,-1.843 0.092,-2.937 0.39,-1.146 1.254,-2.6 2.677,-4.067 1.552,-1.607 3.663,-3.213 6.134,-4.39 4.703,-2.24 10.753,-2.884 17.147,0.428 0.1,0.1 0.206,0.246 0.305,0.337 0.528,0.475 1.07,0.704 1.607,1.002 0.145,0.963 -0.046,1.56 -0.475,1.88 -0.45,0.345 -1.177,0.444 -1.82,0.337 -0.03,-0.007 -0.06,0 -0.092,0 -0.038,-0.007 -0.084,-0.007 -0.122,0 -0.077,0.007 -0.153,0.038 -0.214,0.092 -0.038,0.037 -0.07,0.09 -0.092,0.144 v 0.023 c -0.023,0.084 -0.016,0.176 0.023,0.26 v 0.023 l 0.023,0.023 v 0.023 h 0.023 c 0.047,0.06 0.1,0.092 0.146,0.146 0.268,0.344 0.59,0.596 0.948,0.787 0.146,0.083 0.29,0.13 0.444,0.19 0.2,0.07 0.39,0.108 0.597,0.146 0.214,0.038 0.413,0.153 0.634,0.16 1.07,0.046 2.187,-0.305 3.127,-0.856 0.95,-0.55 1.752,-1.316 2.134,-2.24 0.238,-0.575 0.215,-1.217 0.047,-1.86 0.184,-0.49 0.214,-1.047 0.046,-1.69 -0.138,-0.52 -0.52,-1.185 -0.85,-1.835 -0.015,-0.803 0.062,-1.583 0.162,-2.356 1.285,-3.924 3.327,-6.28 6.02,-7.68 2.95,-1.537 6.737,-1.973 10.958,-1.904 14.348,0.245 24.206,3.465 32.038,6.623 7.833,3.158 13.66,6.378 19.962,6.248 5.935,-0.123 11.404,-1.53 15.465,-4.55 4.06,-3.03 6.63,-7.74 6.63,-14.012 0,-2.333 -0.757,-4.344 -1.758,-6.202 -1.868,-3.473 -4.973,-6.104 -8.238,-7.29 -1.255,-0.45 -2.517,-0.71 -3.74,-0.74 -1.224,-0.024 -2.402,0.183 -3.457,0.695 -2.11,1.016 -3.518,3.326 -3.503,6.5 0.016,3.334 2.822,5.835 6.01,5.89 3.122,0.053 6.456,-2.35 8.055,-7.603 1.17,1.017 2.21,2.256 2.982,3.648 -0.68,5.032 -3,8 -5.805,9.866 -2.853,1.898 -6.264,2.586 -8.78,2.716 -6.6,0.33 -13.966,-6.37 -13.905,-15.732 0.062,-8.558 7.266,-15.755 18.57,-15.725 z m -227.858,0.71 c 3.51,3.198 0.07,5.57 0.635,9.202 2.447,14.913 8.764,16.756 9.804,23.234 3.474,21.583 13.095,31.87 13.76,32.596 0.32,0.536 0.727,0.95 1.254,1.17 -0.22,1.698 0.192,4.352 1.11,6.838 0.87,2.348 2.202,4.49 4.007,5.415 v 0.022 c 0.07,1.943 0.79,4.322 1.967,6.364 1.14,1.99 2.738,3.65 4.634,4.17 0.697,0.748 1.148,1.062 1.783,1.712 1.553,3.526 -9.047,7.38 -13.62,8.75 -1.63,4.665 -7.068,8.42 -11.152,8.336 -3.02,-0.06 -3.25,-0.597 -5.108,-1.545 6.57,-1.2 9.07,-0.98 8.78,-16.298 0,-0.33 -0.015,-0.597 -0.023,-0.788 -0.01,-0.1 -0.016,-0.176 -0.023,-0.237 0,-0.03 0.008,-0.046 0,-0.076 -0.008,-0.023 -0.016,-0.04 -0.046,-0.115 -0.053,-0.17 -0.206,-0.277 -0.382,-0.27 -0.115,0.017 -0.214,0.07 -0.283,0.17 -0.06,0.1 -0.084,0.22 -0.046,0.336 v 0.045 c -3.144,9.414 -11.91,-26.967 -13.76,-40.198 -0.435,-3.128 2.9,-9.828 2.555,-13.47 0.13,-0.106 -0.757,-0.213 -0.826,-0.136 -0.253,1.583 -0.942,3.388 -1.684,5.17 -0.008,0.007 -0.008,0.016 -0.023,0.023 -0.206,0.138 -0.474,0.307 -0.757,0.55 -0.566,0.483 -1.24,1.194 -1.843,2.143 -1.224,1.897 -2.66,3.02 -0.948,7.556 0.642,1.666 -2.37,4.764 -3.526,5.43 0.09,-2.7 -4.368,-3.534 -5.163,-3.12 -0.406,-2.96 0.902,-6.754 2.93,-8.483 2.31,-2.317 4.136,-9.828 2.7,-13.277 -0.116,-0.375 -0.49,-0.604 -0.873,-0.52 -0.214,0.038 -0.413,0.184 -0.52,0.375 -0.107,0.2 -0.123,0.413 -0.046,0.62 0.283,0.473 0.382,1.124 0.42,1.835 0,0.007 0.008,0.023 0,0.03 -1.04,0.888 -3.525,-3.992 -1.415,-5.46 0.39,0.053 0.88,0.19 1.132,0.145 0.413,-0.084 0.696,-0.49 0.62,-0.91 -0.084,-0.413 -0.49,-0.673 -0.903,-0.596 -1.37,0.274 -5.606,-1.18 -8.19,-2.808 -7.542,2.554 -8.94,2.202 -11.06,-0.337 1.278,-1.66 0.184,-4.42 0.17,-4.62 1.46,-1.254 2.79,-1.384 4.304,-1.078 0.788,0.16 3.067,0.78 4.452,2.104 2.676,-0.963 7.036,1.155 7.625,3.098 0.06,0.252 0.26,0.413 0.497,0.497 0.023,0.023 0.107,0.214 0.122,0.214 0.283,0.09 0.604,-0.017 0.803,-0.238 0.2,-0.222 0.237,-0.535 0.115,-0.81 -0.505,-1.828 -2.723,-10.83 -9.3,-10.89 h -0.03 c 0.038,0 -3.38,-0.682 -3.48,-4.384 1.2,-0.428 4.022,-2.523 3.816,-4.864 0.046,0.016 0.06,0.007 0.115,0.023 3.274,0.926 4.82,4.352 4.834,5.935 1.285,0.903 5.866,2.157 7.082,14.18 -0.023,0.298 0.138,0.573 0.398,0.718 0.268,0.138 0.596,0.115 0.834,-0.076 0.23,-0.184 0.328,-0.497 0.26,-0.788 -0.276,-2.93 -0.78,-5.277 -1.4,-7.242 0.092,-3.335 -0.597,-5.645 -2.937,-8.627 -0.014,-0.046 -0.037,-0.1 -0.068,-0.138 -1.177,-2.028 -1.37,-4.108 0.07,-5.676 2.286,0.32 5.66,-0.88 5.85,-0.933 z m -19.68,2.196 c 0.92,-0.016 1.83,0.076 2.678,0.237 0.084,0.283 0.046,1.147 -0.023,1.744 -0.084,0.122 -0.23,0.252 -0.336,0.382 -1.605,-0.276 -4.665,-1.676 -5.842,-0.146 -0.176,0.07 -0.306,0.183 -0.283,0.306 0.023,0.13 0.183,0.222 0.374,0.267 0.19,0.04 0.405,0.017 0.542,-0.076 1.278,-0.328 3.304,0.047 3.817,0.888 -0.185,0.123 -0.43,0.237 -0.644,0.352 -1.392,-0.337 -3.502,-0.65 -5.636,0.62 -0.023,-3.442 2.608,-4.52 5.353,-4.574 z m 62.746,2.333 c 0.887,-0.024 2.02,0.09 3.457,0.312 1.705,0.26 3.61,0.543 5.4,0.428 0.336,-0.022 0.627,-0.137 0.948,-0.19 0.566,2.906 0.145,4.61 -0.872,5.53 -1.078,0.962 -2.882,1.23 -4.902,1.146 -2.02,-0.092 -4.22,-0.49 -6.087,-0.72 -0.32,-0.037 -0.558,-0.022 -0.848,-0.045 -0.3,-0.052 -0.597,-0.114 -0.757,-0.213 -0.23,-0.145 -0.345,-0.32 -0.406,-0.55 -0.123,-0.46 0.037,-1.186 0.473,-1.974 0.788,-1.445 2.325,-2.96 3.595,-3.724 z m -4.757,7.77 c 0.926,0.037 1.898,0.09 3.366,0.313 1.973,0.298 4.26,0.627 6.37,0.543 0.337,-0.007 0.636,-0.123 0.964,-0.16 0.513,3.586 -0.107,5.42 -1.277,6.385 -1.162,0.957 -3.013,1.11 -5.14,0.95 -2.118,-0.153 -4.45,-0.574 -6.53,-0.62 -0.498,-0.007 -0.91,0.122 -1.377,0.168 -0.046,-0.007 -0.092,-0.038 -0.138,-0.046 -0.122,-0.016 -0.252,0.023 -0.382,0.023 -0.17,-0.122 -0.314,-0.244 -0.375,-0.45 -0.167,-0.536 0,-1.485 0.498,-2.502 0.84,-1.75 2.516,-3.564 4.023,-4.604 z m 41.63,1.72 c 2.57,0.505 4.886,1.835 6.27,3.81 1.308,1.857 1.76,4.266 0.95,7.073 -0.223,-0.765 -0.52,-1.415 -0.972,-1.805 -0.696,-0.612 -1.584,-0.78 -2.44,-0.742 -1.37,0.07 -2.578,0.604 -3.335,0.956 -0.084,-0.344 -0.19,-0.596 -0.26,-0.98 -0.122,-0.68 -0.153,-1.574 -0.214,-2.385 0.397,-0.138 1.024,-0.214 1.774,-0.16 1.575,0.1 3.51,0.68 4.428,1.476 0.16,0.114 0.39,0.1 0.52,-0.046 0.13,-0.153 0.115,-0.383 -0.023,-0.528 -2.188,-1.905 -3.848,-2.34 -5.018,-2.647 -0.59,-0.153 -1.048,-0.283 -1.4,-0.52 -0.153,-0.107 -0.268,-0.406 -0.405,-0.574 0.007,-0.92 0.053,-1.882 0.122,-2.93 z m 21.643,3.212 c 0.16,0.023 0.444,0.145 0.757,0.528 0.322,0.39 0.658,0.986 1.017,1.713 0.704,1.46 1.446,3.48 2.104,5.652 1.324,4.33 2.41,9.292 2.8,11.77 1.33,8.467 1.377,13.95 1.728,17.346 0.03,0.345 0.1,0.582 0.138,0.88 -0.566,0.36 -1.254,0.52 -2.103,0.383 -1.063,-0.168 -2.272,-0.704 -3.48,-1.453 -2.363,-1.453 -4.62,-3.755 -5.614,-5.645 -0.008,-0.068 -0.008,-0.137 -0.047,-0.19 -0.084,-0.108 -0.206,-0.16 -0.336,-0.146 h -0.023 c -0.016,0 -0.023,-0.024 -0.046,-0.024 -0.184,-0.007 -0.344,0.13 -0.382,0.306 -0.023,0.122 -0.023,0.122 -0.046,0.214 -1.767,2.057 -2.677,3.962 -2.86,5.652 -0.2,1.79 0.36,3.327 1.254,4.573 0.894,1.248 2.118,2.22 3.31,2.885 0.66,0.367 1.164,0.443 1.73,0.62 -2.302,0.313 -5.132,0.695 -7.885,-0.115 -3.26,-0.964 -6.273,-3.557 -7.627,-10.157 0,-0.016 -0.038,0 -0.045,-0.023 0.016,-0.084 0.09,-0.16 0.045,-0.237 -0.076,-0.145 -0.237,-0.214 -0.397,-0.19 -0.077,0.015 -0.138,0.045 -0.19,0.098 -0.018,0.008 -0.032,0.032 -0.047,0.047 -2.877,2.226 -4.72,5.72 -5.332,8.788 -0.306,1.552 -0.314,2.982 0.07,4.13 0.03,0.076 0.114,0.107 0.144,0.183 -2.914,-1.705 -4.726,-3.816 -5.728,-6.195 -1.224,-2.89 -1.27,-6.187 -0.834,-9.552 0.092,-0.114 0.16,-0.213 0.214,-0.282 0.038,-0.038 0.07,-0.06 0.1,-0.1 0.038,-0.053 0.076,-0.1 0.092,-0.122 0.007,-0.007 0,-0.023 0,-0.023 0.022,-0.023 0.053,-0.038 0.068,-0.07 0.016,-0.015 0.023,-0.006 0.054,-0.12 0,-0.008 0.023,-0.047 0.023,-0.047 v -0.092 l -0.076,-0.168 -0.16,-0.123 -0.17,-0.045 -0.09,0.023 c 0,0 -0.054,0.04 -0.077,0.046 -0.07,0.046 -0.076,0.04 -0.092,0.054 -0.016,0 -0.03,-0.03 -0.046,-0.023 -0.123,0.007 -0.23,0.084 -0.284,0.184 -1.154,1.966 -4.084,5.018 -7.724,7.083 -3.258,1.85 -7.044,2.79 -10.63,1.713 2.21,-7.296 6.17,-11.84 10.446,-14.37 4.1,-2.425 8.375,-3.022 11.526,-2.716 0,0.023 -0.016,0.03 -0.023,0.046 -0.488,1.79 -0.748,4.176 -0.78,6.89 v 0.07 c -0.015,0.214 0.146,0.39 0.353,0.405 0.214,0.017 0.39,-0.144 0.405,-0.358 v -0.046 c 0.016,-0.03 0.07,-0.016 0.07,-0.046 0.427,-2.195 2.11,-5.01 4.12,-7.006 1.01,-1.002 2.097,-1.797 3.13,-2.24 0.787,-0.337 1.506,-0.383 2.18,-0.26 -0.078,0.688 -0.185,1.254 -0.215,2.05 -0.146,3.18 -0.07,6.966 -0.1,9.674 v 0.092 c 0,0.19 0.13,0.344 0.314,0.382 h 0.023 c 0.007,0 0.007,0.023 0.023,0.023 0.092,0.007 0.115,-0.092 0.19,-0.138 0.062,-0.046 0.154,-0.046 0.185,-0.122 0.007,-0.016 0,-0.03 0,-0.046 0.007,-0.017 0.023,-0.017 0.023,-0.024 0.008,-0.023 0,-0.054 0,-0.076 1.285,-5.576 2.654,-10.348 3.955,-13.37 0.657,-1.52 1.323,-2.607 1.873,-3.097 0.276,-0.244 0.497,-0.336 0.69,-0.33 0.152,0 0.328,0.116 0.52,0.284 0.006,0.03 0.006,0.046 0.022,0.092 0.076,0.23 0.16,0.61 0.237,1.078 0.153,0.917 0.32,2.202 0.45,3.64 0.26,2.876 0.467,6.31 0.66,8.627 0.006,0.016 0,0.038 0,0.054 0.006,0.205 0.175,0.373 0.38,0.373 0.208,0 0.376,-0.168 0.383,-0.374 0,-0.024 -0.007,-0.04 0,-0.055 0.306,-7.426 1.798,-15.197 3.29,-21.017 0.74,-2.914 1.506,-5.36 2.08,-7.005 0.13,-0.367 0.198,-0.528 0.313,-0.81 z m -126.59,2.096 c 0.153,0.397 0.2,0.535 0.313,1.147 -0.918,0.07 -2.042,0.313 -2.89,1.33 -0.093,0.092 -0.13,0.215 -0.093,0.337 0.03,0.122 0.13,0.222 0.26,0.237 0.123,0.022 0.26,-0.04 0.33,-0.14 0.62,-0.748 1.636,-0.71 2.44,-0.572 -0.01,0.59 -0.184,1.162 -0.452,1.76 -0.91,-0.177 -2.194,-0.23 -3.242,1.29 -0.872,-3.7 1.713,-5.077 3.335,-5.39 z m 59.295,2.072 c 0.994,-0.092 2.065,-0.053 3.174,0.054 2.21,0.2 4.543,0.673 6.654,0.734 0.688,0.023 1.323,-0.1 1.965,-0.19 0.475,3.754 -0.228,5.842 -1.567,7.035 -1.353,1.2 -3.457,1.545 -5.797,1.568 -2.348,0.03 -4.887,-0.26 -7.128,-0.19 -1.04,0.03 -2.01,0.16 -2.868,0.428 -0.275,-0.107 -0.428,-0.283 -0.497,-0.643 -0.138,-0.764 0.268,-2.24 1.07,-3.74 0.796,-1.498 1.936,-3.06 3.098,-4.145 0.3,-0.283 0.583,-0.413 0.88,-0.62 0.345,-0.076 0.643,-0.252 1.018,-0.29 z m 153.833,2.555 c 0.238,0.046 0.582,0.19 0.79,0.214 -0.108,0.396 -0.307,0.855 -0.598,1.238 -0.06,0.076 -0.145,0.092 -0.214,0.168 0.122,-0.32 0.19,-0.658 0.168,-0.98 -0.016,-0.236 -0.092,-0.42 -0.145,-0.64 z m -144.104,7.602 c 1.01,3.533 0.59,5.575 -0.657,6.837 -1.302,1.316 -3.573,1.89 -6.135,2.218 -2.57,0.33 -5.4,0.428 -7.816,1.002 -0.996,0.23 -1.868,0.635 -2.678,1.094 -0.146,-0.115 -0.314,-0.192 -0.43,-0.43 -0.35,-0.78 -0.42,-2.163 -0.236,-3.647 0.192,-1.482 0.612,-3.073 1.14,-4.29 0.268,-0.604 0.543,-1.14 0.826,-1.498 0.122,-0.153 0.2,-0.146 0.313,-0.237 1.423,-0.375 3.044,-0.56 4.85,-0.528 2.485,0.046 5.154,0.268 7.556,0.1 1.17,-0.085 2.272,-0.276 3.266,-0.62 z m -1.606,9.698 c 0.956,1.69 1.5,3.09 1.652,4.168 0.168,1.147 -0.03,1.95 -0.497,2.6 -0.933,1.293 -3.082,1.966 -5.682,2.402 -2.593,0.443 -5.6,0.688 -8.17,1.36 -1.36,0.36 -2.6,0.873 -3.593,1.6 -0.19,-0.108 -0.39,-0.2 -0.52,-0.452 -0.36,-0.688 -0.436,-1.95 -0.268,-3.312 0.176,-1.368 0.597,-2.828 1.117,-3.96 0.26,-0.566 0.526,-1.04 0.802,-1.377 0.16,-0.19 0.283,-0.222 0.428,-0.313 0.895,-0.337 1.85,-0.628 2.937,-0.81 2.547,-0.43 5.468,-0.53 8.122,-0.95 1.307,-0.214 2.56,-0.504 3.67,-0.955 z m 106.316,4.573 c -0.023,1.254 -0.826,2.134 -1.874,2.524 -0.55,0.206 -1.124,0.245 -1.683,0.145 -0.077,-0.016 -0.154,-0.046 -0.238,-0.07 -0.153,-0.044 -0.26,-0.174 -0.397,-0.236 1.093,-0.006 2.026,-0.29 2.577,-0.863 0.39,-0.398 0.642,-0.864 0.803,-1.262 0.023,-0.038 0.016,-0.053 0.03,-0.092 0.253,0 0.52,-0.09 0.78,-0.145 z m -105.49,5.338 c 0.933,1.125 1.507,2.127 1.73,2.983 0.236,0.902 0.152,1.636 -0.193,2.332 -0.688,1.392 -2.485,2.562 -4.78,3.57 -2.294,1.01 -5.047,1.898 -7.58,2.816 -1.383,0.505 -2.668,1.04 -3.808,1.62 -1.307,-0.282 -2.195,-0.993 -2.745,-2.003 -0.59,-1.063 -0.796,-2.44 -0.734,-3.762 0.053,-1.323 0.397,-2.6 0.894,-3.48 0.062,-0.107 0.13,-0.146 0.192,-0.237 1.2,-0.75 2.776,-1.193 4.573,-1.476 2.616,-0.42 5.62,-0.513 8.283,-0.98 1.553,-0.275 2.983,-0.71 4.168,-1.384 z m -51.616,3.694 c 0.413,0.138 0.84,0.33 1.277,0.528 -0.497,0.834 -1.27,1.973 -2.417,1.95 -0.145,-0.016 -0.298,0.046 -0.375,0.17 -0.084,0.12 -0.076,0.305 0,0.427 0.077,0.122 0.23,0.184 0.375,0.168 1.484,0.023 2.76,-1.246 3.58,-2.095 0.512,0.298 0.955,0.59 1.3,0.902 -1.393,1.27 -4.55,3.38 -7.717,0.337 2.042,0.222 3.342,-1.37 3.977,-2.386 z m 123.714,3.55 c 0,1.337 -0.833,2.477 -1.912,3.097 -0.527,0.305 -1.476,0.374 -1.308,0.313 0.65,-0.237 1.11,-0.688 1.446,-1.17 0.336,-0.482 0.543,-1.002 0.665,-1.453 0.054,-0.184 0.04,-0.276 0.07,-0.428 0.397,-0.055 0.71,-0.216 1.04,-0.36 z m 42.27,0.267 c 2.586,-0.123 5.04,1.14 5.684,2.883 -0.007,0.107 -0.017,0.214 -0.023,0.375 -0.03,0.443 -0.077,1.055 -0.123,1.79 -0.092,1.468 -0.23,3.395 -0.352,5.315 -0.23,3.457 -0.413,6.233 -0.45,6.883 -3.32,2.493 -6.165,0.123 -7.106,-1.858 -0.122,-0.658 -0.62,-3.25 -1.23,-6.524 -0.338,-1.835 -0.667,-3.686 -0.927,-5.077 -0.1,-0.566 -0.19,-0.995 -0.26,-1.385 1.285,-1.598 3.044,-2.325 4.788,-2.4 z m -10.393,0.734 c 1.386,0.032 2.732,0.598 3.718,1.86 0.07,0.412 0.17,0.917 0.283,1.552 0.254,1.392 0.605,3.235 0.95,5.07 0.62,3.366 1.132,6.157 1.23,6.7 -0.97,1.63 -5.987,2.845 -7.815,0.383 -0.007,-0.054 0.038,-0.1 0.023,-0.146 l -3.335,-13.46 c 0.727,-0.965 2.822,-1.997 4.948,-1.96 z m -102.888,0.666 c 1.843,1.132 3.098,2.188 3.862,3.15 0.773,0.965 1.056,1.83 1.018,2.617 -0.077,1.59 -1.545,3.113 -3.74,4.528 -2.195,1.423 -5.033,2.73 -7.694,3.985 -1.3,0.612 -2.493,1.21 -3.58,1.813 -1.292,0.237 -2.424,-0.06 -3.38,-0.81 -1.032,-0.804 -1.88,-2.073 -2.44,-3.435 -0.558,-1.36 -0.84,-2.822 -0.803,-4.03 0.023,-0.81 0.23,-1.4 0.52,-1.86 4.627,-1.987 10.287,-2.982 14.325,-4.786 0.734,-0.33 1.3,-0.758 1.912,-1.17 z m 92.16,0.597 c 1.3,-0.1 2.676,0.275 3.93,1.216 l 3.243,12.94 c -0.933,2.41 -4.933,3.204 -6.554,2.24 l -4.88,-13.39 c -0.182,-1.217 1.82,-2.808 4.26,-3.007 z M 300,268.389 c 2.73,0.122 6.693,2.922 6.654,5.315 l -3.31,13.11 c -0.635,1.628 -5.492,1 -6.448,-2.502 0,-0.007 0.007,-0.016 0,-0.023 0,0 0.245,-3.785 0.498,-7.625 l 0.36,-5.338 c 0.045,-0.734 0.068,-1.346 0.09,-1.79 0.008,-0.1 0.017,-0.153 0.024,-0.237 0.45,-0.673 1.223,-0.948 2.133,-0.91 z m -38.737,2.51 c 0.688,0 1.262,0.197 1.752,0.496 l 5.047,13.843 c -0.544,1.727 -6.463,4.955 -8.077,3.15 l -5.025,-13.92 c 0.19,-1.705 3.67,-3.58 6.302,-3.57 z m 49.322,2.805 c 2.746,0 5.958,2.47 5.92,6.195 l -5.23,13.063 c -1.867,0.757 -6.342,-1.07 -6.395,-4.55 l 3.526,-13.966 c 0.627,-0.46 1.37,-0.742 2.18,-0.742 z m -59.693,0.857 c 0.795,-0.023 1.583,0.26 2.34,0.765 l 4.88,13.56 c -0.59,2.577 -5.592,5.613 -7.626,3.357 l -5.75,-13.154 c 0.03,-0.054 0.052,-0.26 0.09,-0.184 0.138,-1.055 3.06,-4.237 6.065,-4.344 z m -68.336,2.24 c 2.77,1.722 3.748,3.52 3.648,5.34 -0.107,1.85 -1.37,3.83 -3.22,5.674 -2.914,2.89 -6.975,5.147 -10.256,6.67 -0.772,0 -1.644,-0.292 -2.53,-0.926 -1.034,-0.742 -2.036,-1.805 -2.823,-2.96 -0.788,-1.147 -1.346,-2.386 -1.538,-3.38 -0.09,-0.498 -0.09,-0.926 0,-1.262 0.077,-0.26 0.245,-0.42 0.43,-0.574 4.672,-2.11 10.423,-3.946 14.132,-6.53 0.888,-0.613 1.568,-1.31 2.157,-2.05 z m 58.653,2.387 c 0.75,-0.108 1.423,0.015 2.01,0.282 l 5.967,13.636 c 0.115,3.564 -6.96,6.884 -8.574,5.362 l -5.346,-14.9 c -0.09,-1.475 3.174,-3.983 5.943,-4.38 z m 79.012,1.215 c 2.622,0.077 6.186,1.736 6.064,4.168 l -5.094,13.797 c -2.638,1.996 -8.114,-2.654 -8.267,-4.504 l 5.216,-12.918 c 0.488,-0.367 1.192,-0.574 2.08,-0.543 z m -89.292,2.715 c 0.85,-0.275 1.843,-0.023 2.914,1.002 l 5.376,14.914 c -0.145,1.56 -6.05,5.75 -9.17,3.908 -0.688,-1.698 -3.342,-7.786 -3.977,-11.793 0.33,-1.307 0.72,-2.584 1.187,-3.693 0.466,-1.102 0.956,-1.805 1.422,-2.716 0.535,-0.542 1.307,-1.314 2.248,-1.62 z m 56.213,1.98 c 0.024,0.024 0.024,0.093 0.047,0.116 0.138,1.124 6.746,2.386 7.533,2.24 -0.49,1.415 3.74,4.184 6.058,5.08 0.642,0.832 0.627,2.546 0.543,3.48 -0.214,2.385 0.528,5.42 3.932,7.6 2.218,1.4 9.697,4.016 9.736,10.05 0.023,4.344 -3.434,6.11 -4.994,7.105 1.36,-2.568 -0.07,-5.215 -2.96,-5.72 -2.012,-0.305 -7.082,-0.626 -11.442,-0.213 -0.42,0.038 -0.726,0.413 -0.688,0.833 0.038,0.42 0.413,0.734 0.834,0.696 1.927,0.398 2.868,0.29 2.577,1.973 -0.007,0.053 0.046,0.076 0.046,0.122 -6.928,5.453 -21.88,19.51 -22.278,24.848 -0.115,1.507 1.438,3.128 3.48,2.96 0.13,-0.016 7.296,-3.518 10.325,-0.81 -1.652,1.66 -0.413,5.514 -0.45,5.697 -3.84,2.77 -8.315,-1.162 -15.726,-1.216 -7.417,-0.06 -13.482,4.78 -18.278,4.88 -0.627,0.017 -0.933,-0.106 -1.3,-0.214 0.428,-0.573 0.773,-1.162 0.803,-1.162 0.07,-0.007 0.467,-0.245 0.55,-0.268 0.146,0 0.27,-0.092 0.33,-0.237 0.053,-0.138 0.03,-0.3 -0.07,-0.406 -0.106,-0.107 -0.267,-0.146 -0.404,-0.092 0.047,-0.007 -0.015,-0.007 -0.068,0 -0.06,0 -0.146,-0.007 -0.237,0 -0.2,0.007 -3.335,0.803 -4.214,0.81 -1.774,0.008 -5.636,1.316 -8.076,2.647 -1.652,0.672 -4.833,4.282 -9.705,3.188 0.573,-2.065 -0.208,-4.726 -1.76,-6.982 0.283,-0.03 0.765,-0.704 1.025,-1.262 7.212,-1.21 6.462,2.478 8.145,-0.215 1.086,-1.744 1.66,2.906 10.608,-4.528 0.122,-0.07 0.19,-0.19 0.183,-0.337 0,-0.137 -0.083,-0.267 -0.213,-0.33 -0.122,-0.067 -0.26,-0.06 -0.375,0.024 -10.737,4.42 -7.54,1.353 -12.36,1.575 -4.572,0.206 -3.34,1.27 -6.087,1.24 -1.422,-0.024 -2.99,-1.294 -3.334,-1.96 1.14,-0.267 1.202,-3.915 0.353,-5.452 0.573,-0.757 2.294,-1.08 3.785,-1.08 4.084,0 5.668,3.703 9.973,4.147 3.084,-0.007 5.906,-2.547 8.453,-0.857 0.183,0.107 0.42,0.046 0.52,-0.138 0.084,-0.152 0,-0.313 -0.115,-0.428 18.67,0.612 32.466,-40.206 29.52,-44.61 0.008,-0.123 -0.045,-0.238 -0.136,-0.314 -0.03,-0.023 -0.06,-0.007 -0.1,-0.023 -0.367,-1.24 -1.124,-2.884 -3.05,-3.55 -0.018,-0.03 -0.008,-0.144 -0.024,-0.167 -0.505,-0.582 -1.423,-4.214 -5.232,-4.72 0.207,-0.932 0.33,-1.62 0.375,-2.095 1.936,-0.46 4.016,-1.178 4.475,-1.766 1.048,1.414 9.767,1.2 9.476,-0.16 z m 42.05,0.69 c 2.463,0.015 5.866,2.095 6.157,4.167 l -4.214,10.99 c -1.935,2.28 -6.7,0.62 -7.365,-0.03 -0.482,-0.466 -0.666,-1.292 -0.735,-2.14 l 4.452,-12.368 c 0.45,-0.384 1,-0.628 1.705,-0.62 z m -143.393,1.215 c -0.038,0.56 -0.107,1.14 -0.145,1.69 -0.192,3.343 -0.222,6.34 -0.283,9.155 0,0.007 -0.024,-0.007 -0.024,0 v 0.023 c -0.56,2.027 -1.392,3.266 -2.34,3.908 -0.957,0.644 -2.043,0.713 -3.22,0.33 -2.234,-0.72 -4.69,-3.204 -6.417,-6.5 4.58,-1.553 9.2,-4.452 12,-7.916 0.182,-0.222 0.26,-0.46 0.427,-0.69 z m 84.748,0.765 c -0.383,5.025 -8.428,11.013 -11.533,10.914 -0.007,-0.007 -0.023,-0.023 -0.023,-0.03 -0.575,-0.483 -1.28,-0.812 -1.753,-1.377 -1.185,-2.035 10.76,-8.826 13.308,-9.507 z m 32.504,3.12 c 0.03,0.046 0.068,0.092 0.1,0.138 -0.063,0.023 -0.124,0.054 -0.193,0.077 0.046,-0.1 0.046,-0.123 0.092,-0.214 z m -30.042,0.306 c 3.166,0.29 4.275,4.046 3.265,4.574 0.138,0.19 -2.906,7.097 -6.302,8.872 -1.146,0.596 -2.7,0.298 -3.647,0.16 -1.75,-0.71 -3.702,-2.485 -4.306,-4.336 0.872,-1.62 5.5,-3.143 9.5,-9.147 0.535,-0.124 1.032,-0.162 1.49,-0.124 z m 63.93,0.123 c 2.21,-0.506 6.607,1.926 6.814,5.238 l -2.51,6.89 c -1.528,1.125 -8.442,1.255 -8.52,-1.43 l 3.978,-10.554 c 0.092,-0.038 0.138,-0.122 0.238,-0.145 z m -111.624,5.406 c 1.346,-0.75 2.76,4.834 3.365,6.6 l -0.023,0.023 c 0.016,0.313 -2.394,6.89 -4.054,-2.502 0.046,-0.558 0.268,-2.27 0.45,-3.763 0.085,-0.107 0.177,-0.313 0.26,-0.36 z m 52.925,0.55 c 0.39,0.52 1.444,0.574 1.796,2.22 -0.398,2.668 -1.132,5.857 -2.27,9.36 -1.623,0.65 -4.453,-0.36 -6.135,-1.33 -0.313,-0.422 -0.565,-0.896 -0.305,-1.508 3.717,-2.478 5.53,-6.89 6.157,-8.48 0.306,-0.246 0.604,-0.468 0.757,-0.26 z m 66.697,1.14 c 1.408,-0.19 5.423,2.715 5.874,6.486 l 0.093,0.237 c -0.665,2.247 -6.294,1.75 -7.885,-1.072 l 1.92,-5.652 z m -159.706,2.792 c -0.037,1.552 -0.114,2.738 -0.19,3.786 -0.436,-0.398 -0.75,-0.903 -0.972,-1.476 0.03,-0.04 0.07,-0.054 0.092,-0.092 0.406,-0.59 0.757,-1.34 1.07,-2.218 z m 52.68,28.74 c 1.064,0.017 1.4,0.23 2.417,1.24 1.025,1.002 1.744,2.7 3.626,4.597 1.705,1.713 6.34,4.168 9.07,4.887 -0.956,0.313 -1.942,0.527 -2.937,0.688 -2.577,-0.795 -5.667,1.117 -9.927,-2.524 -0.597,-0.497 -2.173,-0.864 -3.74,-1.124 -0.888,-0.72 -3.29,-2.555 -3.03,-2.715 1.148,-1.85 2.44,-3.68 2.112,-4.214 0.504,-0.666 1.353,-0.857 2.41,-0.834 z m -6.768,0.498 c 1.124,-0.237 2.318,0.1 3.22,0.574 -0.13,0.245 -0.245,0.482 -0.36,0.734 -0.734,-0.45 -1.644,-0.818 -3.31,-0.428 -0.162,0.023 -0.284,0.107 -0.33,0.237 -0.046,0.13 0,0.29 0.115,0.382 0.114,0.092 0.283,0.1 0.428,0.046 1.354,-0.312 1.98,0.223 2.6,0.766 -0.122,0.283 -0.267,0.497 -0.397,0.72 -0.803,-0.598 -3.8,-2.54 -4.597,0.496 0.124,-2.218 1.286,-3.243 2.632,-3.526 z m 103.922,1.476 c 1.216,0.115 2.08,0.628 2.63,1.002 0.047,0.214 0.207,0.413 0.17,0.643 -0.017,0.068 -0.077,0.145 -0.1,0.214 -0.956,-0.588 -2.6,-1.276 -4.498,-0.833 -0.16,0.023 -0.283,0.107 -0.328,0.237 -0.054,0.13 -0.023,0.268 0.09,0.36 0.116,0.092 0.3,0.122 0.453,0.07 1.653,-0.392 2.632,0.916 3.458,1.574 -0.322,0.344 -0.68,0.665 -1.018,0.88 -0.566,-0.498 -3.57,-3.067 -6.02,0.36 1.432,-3.84 3.45,-4.666 5.164,-4.506 z m -189.427,0.406 c 1.185,-0.23 2.027,0.688 2.51,1.308 -0.01,0.1 -0.093,0.26 -0.07,0.29 0.07,0.077 0,0.26 -0.046,0.428 -0.726,-0.367 -1.628,-0.543 -3.34,-0.145 -0.154,0.022 -0.284,0.106 -0.33,0.236 -0.046,0.13 0,0.268 0.115,0.36 0.122,0.09 0.282,0.122 0.428,0.068 1.384,-0.32 1.88,0.17 2.462,0.696 -0.29,0.406 -0.558,0.658 -0.78,0.88 -0.925,-0.597 -3.227,-1.86 -4.336,0 1.238,-2.853 2.4,-3.93 3.387,-4.122 z m 86.43,2.31 c 0,0.016 0.03,0.053 0.023,0.053 -0.03,-0.006 -0.045,0.024 -0.076,0.024 0.016,-0.03 0.03,-0.054 0.054,-0.077 z m -5.26,5.843 c 0.09,0 0.09,0.017 0.167,0.024 0.184,0.122 0.55,0.252 0.665,0.36 0.175,0.167 0.22,0.443 0.328,0.664 -1.063,-0.1 -2.378,-0.038 -3.525,0.903 -0.13,0.077 -0.184,0.215 -0.17,0.36 0.017,0.146 0.124,0.283 0.26,0.337 0.14,0.046 0.277,0.007 0.384,-0.1 1.147,-0.94 2.416,-0.206 3.38,0.17 -0.016,0.412 -0.092,0.725 -0.183,1.138 -0.903,-0.75 -3.144,-1.98 -5.002,0.146 -0.26,-3.594 2.286,-4.038 3.694,-4 z m 103.737,3.312 c 0.306,0.007 0.336,0.046 0.566,0.07 0.107,0.465 0.107,0.955 0.046,1.475 -1.08,-0.138 -2.517,-0.115 -3.763,0.91 -0.123,0.077 -0.184,0.23 -0.17,0.383 0.024,0.145 0.1,0.26 0.24,0.305 0.136,0.046 0.305,0.007 0.404,-0.09 0.956,-0.79 1.958,-0.39 2.845,-0.032 -0.092,0.268 -0.16,0.512 -0.268,0.742 -1.078,-0.405 -4.007,-1.208 -4.52,2.837 -2.14,-6.05 2.188,-6.692 4.62,-6.6 z m -39.097,2.547 c 0.007,0.006 -0.007,0.114 0,0.12 2.746,0.062 7.855,3.604 1.614,7.458 2.08,-2.677 -1.774,-3.64 -2.225,-3.694 -0.023,-0.076 0.016,-0.183 0,-0.26 0.91,0.023 1.805,-0.436 3.48,1.24 0.1,0.1 0.16,0.236 0.306,0.26 0.146,0.022 0.276,-0.047 0.36,-0.17 0.077,-0.122 0.084,-0.267 0.023,-0.404 -0.772,-1.714 -2.952,-2.532 -4.1,-2.807 0.116,-0.55 0.284,-1.11 0.544,-1.744 z m -148.77,0.595 c 0.084,0.413 0.077,0.872 -0.046,1.385 -1.085,-0.17 -2.568,-0.176 -3.86,0.88 -0.123,0.076 -0.207,0.213 -0.185,0.36 0.016,0.144 0.123,0.282 0.26,0.328 0.138,0.053 0.3,0.016 0.398,-0.092 0.964,-0.788 1.973,-0.39 2.868,-0.023 -0.228,0.528 -0.404,0.933 -0.64,1.33 -0.98,-0.428 -2.8,-1.07 -4.43,0.528 0.65,-4.488 3.832,-4.855 5.637,-4.695 z m 253.548,2.983 c 1.216,0.39 8.008,3.006 2.348,8.19 1.43,-4.113 -2.54,-4.51 -3.22,-4.572 -0.007,-0.176 0.016,-0.375 0.023,-0.574 1.017,0.1 2.363,0.1 2.937,1.407 0.038,0.145 0.16,0.244 0.306,0.26 0.144,0.022 0.297,-0.04 0.374,-0.16 0.084,-0.124 0.076,-0.284 0,-0.407 -0.734,-1.69 -2.318,-2.44 -3.358,-2.722 0.138,-0.527 0.29,-1.047 0.59,-1.422 z m -60.687,3.618 c 0.222,0.397 0.413,0.872 0.566,1.453 -1.017,0.22 -2.807,0.993 -3.595,2.79 -0.077,0.123 -0.085,0.283 0,0.406 0.076,0.122 0.23,0.183 0.374,0.168 0.145,-0.023 0.268,-0.122 0.314,-0.268 0.62,-1.407 2.164,-1.3 3.197,-1.43 0.016,0.2 0.038,0.398 0.045,0.597 -0.894,0.084 -4.902,0.55 -3.502,4.55 -5.95,-5.445 1.98,-8.09 2.6,-8.267 z m -104.732,0.336 c 0.168,0.29 0.328,0.536 0.474,0.903 -1.04,0.33 -2.432,1.025 -3.12,2.6 -0.077,0.122 -0.085,0.283 0,0.405 0.076,0.123 0.23,0.184 0.374,0.17 0.146,-0.024 0.268,-0.124 0.314,-0.27 0.573,-1.314 1.935,-1.307 2.96,-1.406 0.122,0.59 0.168,1.147 0.16,1.698 -1.254,-0.245 -4.07,0.084 -4.948,2.424 -2.44,-2.547 0.726,-5.85 3.786,-6.524 z m -26.134,0.98 c 2.777,0.542 7.93,2.936 2.226,8.167 1.942,-2.892 -2.027,-3.695 -3.06,-3.863 -0.1,-0.298 -0.106,-0.635 -0.114,-0.994 1.11,0.1 2.914,0.06 3.503,1.4 0.046,0.145 0.16,0.244 0.306,0.267 0.145,0.016 0.298,-0.046 0.382,-0.168 0.077,-0.123 0.07,-0.283 0,-0.406 -0.734,-1.674 -2.8,-2.592 -3.977,-2.93 0.184,-0.634 0.46,-1.115 0.734,-1.475 z m -59.012,5.79 h 0.023 c 0.26,0.442 0.528,0.687 0.734,1.238 -0.994,0.397 -2.118,1.078 -2.723,2.455 -0.068,0.122 -0.053,0.283 0.023,0.405 0.085,0.123 0.215,0.184 0.36,0.16 0.145,-0.015 0.26,-0.122 0.306,-0.26 0.482,-1.093 1.484,-1.254 2.417,-1.33 0.114,0.574 0.13,1.1 0.045,1.614 -1.3,-0.054 -3.563,0.176 -2.416,3.48 -3.573,-4.436 -0.774,-7.65 1.23,-7.763 z"
     inkscape:connector-curvature="0"
     id="path10"
     style="fill:#e84040" />
</svg>
